<svg id="Layer_1" data-name="Layer 1" xmlns="http://www.w3.org/2000/svg" viewBox="0 0 887.8 648.01"><defs><style>.cls-1,.cls-13,.cls-15,.cls-2,.cls-5{fill:#6758e5;}.cls-1{fill-opacity:0.2;}.cls-2{fill-opacity:0.1;}.cls-3{fill:#161547;}.cls-4{opacity:0.55;}.cls-6{opacity:0.4;}.cls-7{opacity:0.8;}.cls-15,.cls-8{opacity:0.3;}.cls-9{opacity:0.32;}.cls-10{opacity:0.28;}.cls-11{opacity:0.47;}.cls-12{opacity:0.9;}.cls-13{opacity:0.1;}.cls-13,.cls-15{isolation:isolate;}.cls-14{fill:#fff;}.cls-16{fill:#4b19ec;}.cls-17{fill:#cf5fff;}</style></defs><title>about-vectors</title><circle class="cls-1" cx="344.6" cy="287.57" r="179.5"/><circle class="cls-2" cx="344.6" cy="287.57" r="78.5"/><circle class="cls-3" cx="344.6" cy="287.57" r="37.5"/><g class="cls-4"><path class="cls-5" d="M1121.55,450.26a.43.43,0,1,0-.43-.43A.43.43,0,0,0,1121.55,450.26Z" transform="translate(-848.47 -216.12)"/><path class="cls-5" d="M1113.34,445.94a.43.43,0,1,0-.43-.43A.44.44,0,0,0,1113.34,445.94Z" transform="translate(-848.47 -216.12)"/><path class="cls-5" d="M1113.34,452.85a.43.43,0,1,0-.43-.43A.44.44,0,0,0,1113.34,452.85Z" transform="translate(-848.47 -216.12)"/><path class="cls-5" d="M1123.28,441.19h-16.41a1.3,1.3,0,0,0-1.3,1.3v12.95a1.3,1.3,0,0,0,1.3,1.3h16.41a1.3,1.3,0,0,0,1.29-1.3V442.49A1.3,1.3,0,0,0,1123.28,441.19Zm.43,14.25a.43.43,0,0,1-.43.43h-16.41a.43.43,0,0,1-.43-.43V442.49a.44.44,0,0,1,.43-.44h16.41a.44.44,0,0,1,.43.44Z" transform="translate(-848.47 -216.12)"/><path class="cls-5" d="M1115.07,449a1.73,1.73,0,1,0-1.73,1.73A1.72,1.72,0,0,0,1115.07,449Zm-1.73.87a.87.87,0,1,1,.87-.87A.87.87,0,0,1,1113.34,449.83Z" transform="translate(-848.47 -216.12)"/><path class="cls-5" d="M1110.72,450.47a.43.43,0,1,0-.74.43,3.94,3.94,0,0,0,1.91,1.67.41.41,0,0,0,.16,0,.43.43,0,0,0,.16-.83A3.14,3.14,0,0,1,1110.72,450.47Z" transform="translate(-848.47 -216.12)"/><path class="cls-5" d="M1116,447.45a.44.44,0,0,0,.38.22.42.42,0,0,0,.21-.06.43.43,0,0,0,.16-.59,3.87,3.87,0,0,0-1.91-1.66.43.43,0,1,0-.32.8A3,3,0,0,1,1116,447.45Z" transform="translate(-848.47 -216.12)"/><path class="cls-5" d="M1121.55,442.92a1.3,1.3,0,0,0-1.3,1.29,1.32,1.32,0,0,0,.39.93l-1.33,2.86a6,6,0,1,0-1.2,4.68.43.43,0,0,0-.68-.53,5.18,5.18,0,1,1,1.1-3.19c0,.14,0,.27,0,.4s0,.27,0,.4a.49.49,0,0,1,0,.11l-.06.14a.44.44,0,0,1-.39.25h-.75a.43.43,0,0,0-.43-.43h-1.3a.43.43,0,0,0-.43.43v.86a.43.43,0,0,0,.43.43h1.3a.43.43,0,0,0,.43-.43h.75a1.29,1.29,0,0,0,1.17-.75l2.28-4.87h.12a1.3,1.3,0,0,0,0-2.59Zm0,1.73a.44.44,0,0,1-.43-.44.43.43,0,1,1,.86,0A.44.44,0,0,1,1121.55,444.65Z" transform="translate(-848.47 -216.12)"/><path class="cls-5" d="M1122,452.85v-1.73a.43.43,0,1,0-.86,0v1.73a.43.43,0,0,0,0,.86v.44a.43.43,0,0,0,.86,0v-.44a.43.43,0,1,0,0-.86Z" transform="translate(-848.47 -216.12)"/></g><g class="cls-6"><path class="cls-5" d="M1493,764.89l-2.4,1.58-1.59-2.42a52.07,52.07,0,0,0-32.86-22.46,8.73,8.73,0,0,0-8.22-6.94,57.69,57.69,0,0,0-56.26,36.89,8.73,8.73,0,0,0,3.18,10.33,52.31,52.31,0,0,0,7.53,39l1.59,2.42-2.41,1.58a8.66,8.66,0,0,0-2.44,12l15.35,23.34a8.66,8.66,0,0,0,9,3.77l9.22-1.85a14.14,14.14,0,0,0,5-2.07l7.77-5.09a2.88,2.88,0,0,0,.82-4l-23.88-36.3a2.88,2.88,0,0,0-4-.84l-4.82,3.15a2.9,2.9,0,0,0,3.19,4.84l2.4-1.57,20.69,31.46-4.81,3.15-17.51-26.62a2.88,2.88,0,1,0-4.81,3.16l16.75,25.46-7.21,1.45a2.91,2.91,0,0,1-3-1.25l-15.35-23.35a2.89,2.89,0,0,1,.82-4l4.81-3.15a2.88,2.88,0,0,0,.81-4l-3.18-4.84a46.51,46.51,0,0,1-6.76-34.29,8.68,8.68,0,0,0,4.1-1.35,9,9,0,0,0,3.43-4.29A40.08,40.08,0,0,1,1447.16,752a8.71,8.71,0,0,0,8.19-4.69,46.23,46.23,0,0,1,28.81,19.85l3.19,4.85a2.89,2.89,0,0,0,4,.84l4.82-3.16a2.9,2.9,0,0,1,4,.84l15.35,23.35a2.88,2.88,0,0,1,0,3.24l-4.19,6-16.75-25.46a2.87,2.87,0,1,0-4.81,3.15l17.5,26.62-4.81,3.16-20.69-31.46,2.41-1.58a2.9,2.9,0,0,0-3.19-4.84l-4.81,3.16a2.88,2.88,0,0,0-.82,4l23.88,36.31a2.9,2.9,0,0,0,4,.84L1511,812a14.07,14.07,0,0,0,3.9-3.79l5.35-7.71a8.62,8.62,0,0,0,.11-9.72L1505,767.42A8.69,8.69,0,0,0,1493,764.89Zm-45.59-18.62a45.82,45.82,0,0,0-44.85,29.41,3,3,0,0,1-3.36,2,3,3,0,0,1-2.14-4,51.95,51.95,0,0,1,50.68-33.24,3,3,0,0,1,2.22,1.14,2.89,2.89,0,0,1,.57,2.4A3,3,0,0,1,1447.38,746.27Z" transform="translate(-848.47 -216.12)"/></g><path class="cls-5" d="M1074.69,618.93a2.39,2.39,0,0,0,1.55-3,2.43,2.43,0,0,0-3-1.58,2.38,2.38,0,0,0-1.54,3A2.42,2.42,0,0,0,1074.69,618.93Z" transform="translate(-848.47 -216.12)"/><path class="cls-5" d="M1087.32,614.91a2.4,2.4,0,0,0,1.54-3,2.44,2.44,0,0,0-3-1.59,2.4,2.4,0,0,0-1.54,3A2.44,2.44,0,0,0,1087.32,614.91Z" transform="translate(-848.47 -216.12)"/><path class="cls-5" d="M1062.07,623a2.39,2.39,0,0,0,1.54-3,2.42,2.42,0,0,0-3-1.59,2.39,2.39,0,0,0-1.54,3A2.43,2.43,0,0,0,1062.07,623Z" transform="translate(-848.47 -216.12)"/><path class="cls-5" d="M1092.59,600.48l-43.39,13.67a3.6,3.6,0,0,0-2.31,4.54L1061,662.52a3.65,3.65,0,0,0,4.54,2.39l43.39-13.68a3.59,3.59,0,0,0,2.31-4.54l-14.12-43.83A3.64,3.64,0,0,0,1092.59,600.48ZM1109,647.41a1.2,1.2,0,0,1-.77,1.51l-43.39,13.68a1.23,1.23,0,0,1-1.52-.79L1049.18,618a1.19,1.19,0,0,1,.77-1.51l43.39-13.68a1.21,1.21,0,0,1,1.51.8Z" transform="translate(-848.47 -216.12)"/><path class="cls-5" d="M1082.72,644.16a1.2,1.2,0,0,0-.77,1.51l1.48,4.6a1.2,1.2,0,0,0,1.5.79,1.19,1.19,0,0,0,.77-1.51l-1.48-4.6A1.2,1.2,0,0,0,1082.72,644.16Z" transform="translate(-848.47 -216.12)"/><path class="cls-5" d="M1092,629.81a1.2,1.2,0,0,0-.76,1.51l4.79,14.93a1.19,1.19,0,1,0,2.26-.72l-4.79-14.93A1.19,1.19,0,0,0,1092,629.81Z" transform="translate(-848.47 -216.12)"/><path class="cls-5" d="M1067.89,641.3a1.19,1.19,0,0,0-.76,1.5l3.68,11.49a1.2,1.2,0,0,0,1.5.79,1.18,1.18,0,0,0,.77-1.5l-3.69-11.49A1.19,1.19,0,0,0,1067.89,641.3Z" transform="translate(-848.47 -216.12)"/><path class="cls-5" d="M1069.15,633.35l-.21.06a3.65,3.65,0,0,0-2.75-1.43l-1.92-6a1.22,1.22,0,0,0-1.51-.79,1.2,1.2,0,0,0-.77,1.51l1.92,6a3.59,3.59,0,0,0-1.39,2.75l-.21.06a1.2,1.2,0,0,0-.77,1.52,1.21,1.21,0,0,0,1.51.79l.21-.07a3.6,3.6,0,0,0,4,1.29,3.55,3.55,0,0,0,2.47-3.31l.21-.07a1.2,1.2,0,0,0,.77-1.51A1.21,1.21,0,0,0,1069.15,633.35Zm-2.68,3.38a1.21,1.21,0,0,1-1.51-.79,1.18,1.18,0,0,1,.77-1.51,1.21,1.21,0,0,1,.74,2.3Z" transform="translate(-848.47 -216.12)"/><path class="cls-5" d="M1084,636.22l-.21.06a3.63,3.63,0,0,0-2.74-1.43L1076.88,622a1.2,1.2,0,0,0-1.51-.79,1.19,1.19,0,0,0-.76,1.51l4.14,12.87a3.57,3.57,0,0,0-1.4,2.74l-.21.06a1.21,1.21,0,0,0,.74,2.3l.21-.06a3.6,3.6,0,0,0,4,1.29,3.55,3.55,0,0,0,2.46-3.31l.21-.07a1.2,1.2,0,0,0,.77-1.51A1.22,1.22,0,0,0,1084,636.22Zm-2.67,3.38a1.21,1.21,0,0,1-1.51-.79,1.19,1.19,0,1,1,1.51.79Z" transform="translate(-848.47 -216.12)"/><path class="cls-5" d="M1093.29,621.85l-.21.07a3.59,3.59,0,0,0-2.74-1.44l-.81-2.52a1.22,1.22,0,0,0-1.52-.79,1.2,1.2,0,0,0-.77,1.51l.81,2.52a3.58,3.58,0,0,0-1.39,2.75l-.21.06a1.19,1.19,0,0,0-.77,1.51,1.21,1.21,0,0,0,1.51.8l.21-.07a3.61,3.61,0,0,0,4,1.29,3.56,3.56,0,0,0,2.47-3.32l.21-.06a1.2,1.2,0,0,0,.77-1.51A1.22,1.22,0,0,0,1093.29,621.85Zm-2.68,3.39a1.21,1.21,0,0,1-1.51-.8,1.19,1.19,0,1,1,1.51.8Z" transform="translate(-848.47 -216.12)"/><path class="cls-5" d="M1186.14,619.73a.8.8,0,1,0-.39-1.05A.79.79,0,0,0,1186.14,619.73Z" transform="translate(-848.47 -216.12)"/><path class="cls-5" d="M1187.46,616.83a.79.79,0,0,0,1-.4.78.78,0,0,0-.39-1,.8.8,0,0,0-.66,1.45Z" transform="translate(-848.47 -216.12)"/><path class="cls-5" d="M1193.4,603.78a3.19,3.19,0,0,0-4.21,1.61,3.16,3.16,0,0,0,1.55,4.21A3.19,3.19,0,0,0,1195,608,3.16,3.16,0,0,0,1193.4,603.78Zm-2,4.37a1.6,1.6,0,0,1,1.33-2.91,1.57,1.57,0,0,1,.78,2.1A1.62,1.62,0,0,1,1191.4,608.15Z" transform="translate(-848.47 -216.12)"/><path class="cls-5" d="M1199.38,590.68a17.6,17.6,0,1,0,8.55,23.18A17.62,17.62,0,0,0,1199.38,590.68Zm-14,30.56a15.85,15.85,0,0,1-7.77-21.06,15.82,15.82,0,1,1,7.77,21.06Z" transform="translate(-848.47 -216.12)"/><path class="cls-5" d="M1194.73,600.87a6.4,6.4,0,1,0,3.11,8.43A6.41,6.41,0,0,0,1194.73,600.87Zm-4.65,10.19a4.8,4.8,0,1,1,6.31-2.42A4.76,4.76,0,0,1,1190.08,611.06Z" transform="translate(-848.47 -216.12)"/><path class="cls-5" d="M1184.21,616.71a12.51,12.51,0,0,1-4-5.53.78.78,0,0,0-1-.46.81.81,0,0,0-.47,1,14.17,14.17,0,0,0,4.53,6.22l.16.1a.79.79,0,0,0,1-.24A.8.8,0,0,0,1184.21,616.71Z" transform="translate(-848.47 -216.12)"/><path class="cls-5" d="M1185.63,613.74a9.43,9.43,0,0,1-2.41-3.52.79.79,0,0,0-1-.44.81.81,0,0,0-.45,1,11,11,0,0,0,2.82,4.11.9.9,0,0,0,.2.14.8.8,0,0,0,.92-.2A.79.79,0,0,0,1185.63,613.74Z" transform="translate(-848.47 -216.12)"/><path class="cls-5" d="M1197.33,595.11a.8.8,0,1,0-.39-1.06A.8.8,0,0,0,1197.33,595.11Z" transform="translate(-848.47 -216.12)"/><path class="cls-5" d="M1196,598a.8.8,0,0,0,1-.4.79.79,0,1,0-1.44-.65A.78.78,0,0,0,1196,598Z" transform="translate(-848.47 -216.12)"/><path class="cls-5" d="M1200.92,595.41a.8.8,0,0,0-1,1.26,12.59,12.59,0,0,1,4,5.53.79.79,0,0,0,.41.45.81.81,0,0,0,1.08-1A14.09,14.09,0,0,0,1200.92,595.41Z" transform="translate(-848.47 -216.12)"/><path class="cls-5" d="M1199.58,598.45a.8.8,0,0,0-1.07,1.19,9.43,9.43,0,0,1,2.41,3.52.79.79,0,0,0,.41.43.83.83,0,0,0,.62,0,.81.81,0,0,0,.45-1A10.84,10.84,0,0,0,1199.58,598.45Z" transform="translate(-848.47 -216.12)"/><path class="cls-5" d="M1180.57,525.55a.91.91,0,1,0-.91-.9A.9.9,0,0,0,1180.57,525.55Z" transform="translate(-848.47 -216.12)"/><path class="cls-5" d="M1180.57,521.92a.91.91,0,1,0-.91-.91A.91.91,0,0,0,1180.57,521.92Z" transform="translate(-848.47 -216.12)"/><path class="cls-5" d="M1180.57,505.55a3.64,3.64,0,1,0,3.64,3.64A3.64,3.64,0,0,0,1180.57,505.55Zm0,5.46a1.82,1.82,0,1,1,1.82-1.82A1.83,1.83,0,0,1,1180.57,511Z" transform="translate(-848.47 -216.12)"/><path class="cls-5" d="M1180.57,489.19a20,20,0,1,0,20,20A20,20,0,0,0,1180.57,489.19Zm0,38.18a18.18,18.18,0,1,1,18.18-18.18A18.2,18.2,0,0,1,1180.57,527.37Z" transform="translate(-848.47 -216.12)"/><path class="cls-5" d="M1180.57,501.92a7.27,7.27,0,1,0,7.27,7.27A7.28,7.28,0,0,0,1180.57,501.92Zm0,12.73a5.46,5.46,0,1,1,5.45-5.46A5.46,5.46,0,0,1,1180.57,514.65Z" transform="translate(-848.47 -216.12)"/><path class="cls-5" d="M1177.15,523.33a14.49,14.49,0,0,1-6.85-3.84.91.91,0,1,0-1.28,1.29,16.34,16.34,0,0,0,7.7,4.32.82.82,0,0,0,.22,0,.91.91,0,0,0,.21-1.79Z" transform="translate(-848.47 -216.12)"/><path class="cls-5" d="M1177.22,519.58a11.08,11.08,0,0,1-4.2-2.52.91.91,0,1,0-1.26,1.31,12.88,12.88,0,0,0,4.9,2.94,1,1,0,0,0,.28,0,.92.92,0,0,0,.87-.63A.91.91,0,0,0,1177.22,519.58Z" transform="translate(-848.47 -216.12)"/><path class="cls-5" d="M1180.57,494.64a.91.91,0,1,0-.91-.9A.9.9,0,0,0,1180.57,494.64Z" transform="translate(-848.47 -216.12)"/><path class="cls-5" d="M1180.57,498.28a.91.91,0,1,0-.91-.91A.91.91,0,0,0,1180.57,498.28Z" transform="translate(-848.47 -216.12)"/><path class="cls-5" d="M1184.42,493.28a.91.91,0,1,0-.43,1.77,14.49,14.49,0,0,1,6.85,3.84.92.92,0,0,0,1.28,0,.91.91,0,0,0,0-1.29A16.34,16.34,0,0,0,1184.42,493.28Z" transform="translate(-848.47 -216.12)"/><path class="cls-5" d="M1184.48,497.07a.91.91,0,0,0-.56,1.74,10.93,10.93,0,0,1,4.2,2.51.92.92,0,0,0,.63.25.91.91,0,0,0,.63-1.56A12.8,12.8,0,0,0,1184.48,497.07Z" transform="translate(-848.47 -216.12)"/><g class="cls-7"><path class="cls-5" d="M1372.57,295.92a1.32,1.32,0,1,0-1.32-1.32A1.32,1.32,0,0,0,1372.57,295.92Z" transform="translate(-848.47 -216.12)"/><path class="cls-5" d="M1372.57,290.64a1.32,1.32,0,1,0-1.32-1.31A1.32,1.32,0,0,0,1372.57,290.64Z" transform="translate(-848.47 -216.12)"/><path class="cls-5" d="M1372.57,266.92a5.27,5.27,0,1,0,5.27,5.27A5.27,5.27,0,0,0,1372.57,266.92Zm0,7.91a2.64,2.64,0,1,1,2.64-2.64A2.65,2.65,0,0,1,1372.57,274.83Z" transform="translate(-848.47 -216.12)"/><path class="cls-5" d="M1372.57,243.19a29,29,0,1,0,29,29A29,29,0,0,0,1372.57,243.19Zm0,55.36a26.36,26.36,0,1,1,26.36-26.36A26.38,26.38,0,0,1,1372.57,298.55Z" transform="translate(-848.47 -216.12)"/><path class="cls-5" d="M1372.57,261.65a10.55,10.55,0,1,0,10.55,10.54A10.56,10.56,0,0,0,1372.57,261.65Zm0,18.45a7.91,7.91,0,1,1,7.91-7.91A7.92,7.92,0,0,1,1372.57,280.1Z" transform="translate(-848.47 -216.12)"/><path class="cls-5" d="M1367.61,292.69a21,21,0,0,1-9.93-5.56,1.32,1.32,0,0,0-1.86,1.87,23.7,23.7,0,0,0,11.17,6.26,1.63,1.63,0,0,0,.31,0,1.32,1.32,0,0,0,.31-2.6Z" transform="translate(-848.47 -216.12)"/><path class="cls-5" d="M1367.71,287.25a15.83,15.83,0,0,1-6.09-3.65,1.32,1.32,0,0,0-1.83,1.91,18.53,18.53,0,0,0,7.11,4.25,1.45,1.45,0,0,0,.41.06,1.32,1.32,0,0,0,.4-2.57Z" transform="translate(-848.47 -216.12)"/><path class="cls-5" d="M1372.57,251.1a1.32,1.32,0,1,0-1.32-1.32A1.32,1.32,0,0,0,1372.57,251.1Z" transform="translate(-848.47 -216.12)"/><path class="cls-5" d="M1372.57,256.37a1.32,1.32,0,1,0-1.32-1.32A1.32,1.32,0,0,0,1372.57,256.37Z" transform="translate(-848.47 -216.12)"/><path class="cls-5" d="M1378.15,249.12a1.32,1.32,0,0,0-.62,2.57,21.09,21.09,0,0,1,9.93,5.56,1.29,1.29,0,0,0,.93.39,1.3,1.3,0,0,0,.93-.39,1.32,1.32,0,0,0,0-1.86A23.72,23.72,0,0,0,1378.15,249.12Z" transform="translate(-848.47 -216.12)"/><path class="cls-5" d="M1378.24,254.62a1.32,1.32,0,0,0-1.66.85,1.3,1.3,0,0,0,.85,1.66,15.83,15.83,0,0,1,6.09,3.65,1.35,1.35,0,0,0,.91.36,1.32,1.32,0,0,0,.92-2.27A18.53,18.53,0,0,0,1378.24,254.62Z" transform="translate(-848.47 -216.12)"/></g><g class="cls-8"><path class="cls-5" d="M881,670.27l13.3,2.71a3.43,3.43,0,0,0,4-2.69,3.4,3.4,0,0,0-2.61-4l-13.3-2.71a3.45,3.45,0,0,0-4,2.69A3.38,3.38,0,0,0,881,670.27Z" transform="translate(-848.47 -216.12)"/><path class="cls-5" d="M883.78,657l13.3,2.71a3.45,3.45,0,0,0,4-2.69,3.4,3.4,0,0,0-2.62-4l-13.3-2.71a3.45,3.45,0,0,0-4,2.69A3.4,3.4,0,0,0,883.78,657Z" transform="translate(-848.47 -216.12)"/><path class="cls-5" d="M886.54,643.63l13.29,2.71a3.44,3.44,0,0,0,4-2.69,3.39,3.39,0,0,0-2.62-4L888,636.91a3.43,3.43,0,0,0-4,2.68A3.38,3.38,0,0,0,886.54,643.63Z" transform="translate(-848.47 -216.12)"/><path class="cls-5" d="M878.28,683.59l13.29,2.71a3.44,3.44,0,0,0,4-2.69,3.38,3.38,0,0,0-2.62-4l-13.29-2.71a3.44,3.44,0,0,0-4,2.69A3.39,3.39,0,0,0,878.28,683.59Z" transform="translate(-848.47 -216.12)"/><path class="cls-5" d="M907.67,675.78l13.29,2.7a3.43,3.43,0,0,0,4-2.68,3.38,3.38,0,0,0-2.62-4l-13.29-2.71a3.44,3.44,0,0,0-4,2.68A3.4,3.4,0,0,0,907.67,675.78Z" transform="translate(-848.47 -216.12)"/><path class="cls-5" d="M910.42,662.46l13.3,2.71a3.43,3.43,0,0,0,4-2.69,3.39,3.39,0,0,0-2.61-4l-13.3-2.71a3.45,3.45,0,0,0-4,2.69A3.39,3.39,0,0,0,910.42,662.46Z" transform="translate(-848.47 -216.12)"/><path class="cls-5" d="M913.17,649.14l13.3,2.71a3.45,3.45,0,0,0,4-2.69,3.39,3.39,0,0,0-2.62-4l-13.3-2.71a3.45,3.45,0,0,0-4,2.69A3.41,3.41,0,0,0,913.17,649.14Z" transform="translate(-848.47 -216.12)"/><path class="cls-5" d="M904.91,689.09l13.3,2.71a3.44,3.44,0,0,0,4-2.68,3.39,3.39,0,0,0-2.62-4l-13.3-2.71a3.44,3.44,0,0,0-4,2.68A3.4,3.4,0,0,0,904.91,689.09Z" transform="translate(-848.47 -216.12)"/><path class="cls-5" d="M870.6,720.38a3.42,3.42,0,0,0,4-2.67,3.37,3.37,0,0,0-2.61-4l-3.32-.68a16.89,16.89,0,0,1-13.06-20.11l7-33.48,6.63,1.35-5.63,26.78a16.89,16.89,0,0,0,13.07,20.11l33.17,6.75A17.18,17.18,0,0,0,930,701l3.52-16.75a3.38,3.38,0,0,0-2.61-4,3.44,3.44,0,0,0-4,2.68l-3.52,16.74a10.31,10.31,0,0,1-12.07,8l1.41-6.7a3.38,3.38,0,0,0-2.61-4,3.44,3.44,0,0,0-4,2.67l-1.4,6.7L898.05,705l1.41-6.69a3.39,3.39,0,0,0-2.61-4,3.44,3.44,0,0,0-4,2.68l-1.4,6.69-6.64-1.34,1.41-6.7a3.37,3.37,0,0,0-2.62-4,3.43,3.43,0,0,0-4,2.67l-1.41,6.7a10.15,10.15,0,0,1-7.84-12.07l6.34-30.13a3.39,3.39,0,0,0-2.61-4l-16.59-3.37a3.44,3.44,0,0,0-4,2.68,3.37,3.37,0,0,0,2.61,4l-7,33.48a23.65,23.65,0,0,0,18.3,28.16Z" transform="translate(-848.47 -216.12)"/><path class="cls-5" d="M950.23,670.39,937,667.7,942.62,641a16.85,16.85,0,0,0-13-20l-33.06-6.72a17.11,17.11,0,0,0-20,13.33L873,644.24a3.36,3.36,0,0,0,2.6,4,3.41,3.41,0,0,0,4-2.66l3.51-16.7a10.26,10.26,0,0,1,12-8l-1.4,6.67a3.36,3.36,0,0,0,2.6,4,3.42,3.42,0,0,0,4-2.66l1.41-6.68,6.61,1.34L907,630.26a3.37,3.37,0,0,0,2.61,4,3.43,3.43,0,0,0,4-2.66l1.4-6.68,6.61,1.34-1.4,6.68a3.37,3.37,0,0,0,2.6,4,3.42,3.42,0,0,0,4-2.66l1.4-6.68a10.11,10.11,0,0,1,7.82,12l-6.32,30.05a3.37,3.37,0,0,0,2.61,4l9.92,2-7,33.38a17.13,17.13,0,0,1-20,13.34l-29.75-6.05a3.42,3.42,0,0,0-4,2.66l-4.91,23.37-9.92-2a3.38,3.38,0,0,0-2.55.5l-2.34,1.56a20,20,0,0,0-8.54,12.61,3.36,3.36,0,0,0,2.61,4l52.89,10.76a3.42,3.42,0,0,0,4-2.67,19.72,19.72,0,0,0-2.75-14.9l-1.53-2.35a3.33,3.33,0,0,0-4.67-1,3.44,3.44,0,0,0-1,4.72l1.53,2.35a12.94,12.94,0,0,1,2.08,6.36l-45.42-9.23a13.2,13.2,0,0,1,4.47-5l1.17-.78,25.08,5.1a3.42,3.42,0,0,0,4-2.66l4.91-23.38,13.23,2.69a24,24,0,0,0,28-18.66l7-33.39a3.41,3.41,0,0,0,4-2.67A3.36,3.36,0,0,0,950.23,670.39Zm-60.52,74.73-6.61-1.34,4.21-20,6.61,1.34Z" transform="translate(-848.47 -216.12)"/></g><path class="cls-5" d="M1302.84,670.23l3.21,1.47a.89.89,0,0,0,.76-1.62l-3.22-1.48a.9.9,0,0,0-.75,1.63Z" transform="translate(-848.47 -216.12)"/><path class="cls-5" d="M1304.33,667l3.21,1.47a.89.89,0,0,0,1.18-.44.88.88,0,0,0-.43-1.18l-3.21-1.48a.9.9,0,0,0-1.18.45A.88.88,0,0,0,1304.33,667Z" transform="translate(-848.47 -216.12)"/><path class="cls-5" d="M1305.81,663.79l3.22,1.48a.9.9,0,0,0,.75-1.63l-3.21-1.48a.89.89,0,0,0-1.18.45A.88.88,0,0,0,1305.81,663.79Z" transform="translate(-848.47 -216.12)"/><path class="cls-5" d="M1301.36,673.44l3.21,1.48a.89.89,0,0,0,.75-1.62l-3.21-1.48a.9.9,0,0,0-1.18.44A.88.88,0,0,0,1301.36,673.44Z" transform="translate(-848.47 -216.12)"/><path class="cls-5" d="M1309.28,673.2l3.21,1.48a.9.9,0,0,0,1.18-.45.89.89,0,0,0-.42-1.18l-3.22-1.47a.89.89,0,0,0-1.18.44A.9.9,0,0,0,1309.28,673.2Z" transform="translate(-848.47 -216.12)"/><path class="cls-5" d="M1310.77,670l3.21,1.48a.9.9,0,0,0,.75-1.63l-3.21-1.47a.89.89,0,0,0-1.18.44A.88.88,0,0,0,1310.77,670Z" transform="translate(-848.47 -216.12)"/><path class="cls-5" d="M1312.25,666.76l3.22,1.48a.9.9,0,0,0,.75-1.63l-3.22-1.47a.89.89,0,0,0-.75,1.62Z" transform="translate(-848.47 -216.12)"/><path class="cls-5" d="M1307.79,676.42l3.22,1.47a.89.89,0,0,0,1.18-.44.9.9,0,0,0-.43-1.18l-3.21-1.48a.9.9,0,0,0-.76,1.63Z" transform="translate(-848.47 -216.12)"/><path class="cls-5" d="M1297.24,682.34a.9.9,0,0,0,1.18-.44.88.88,0,0,0-.43-1.18l-.8-.37a4.41,4.41,0,0,1-2.13-5.88l3.76-8.1,1.6.74-3,6.47a4.41,4.41,0,0,0,2.13,5.89l8,3.68a4.46,4.46,0,0,0,5.89-2.2l1.88-4.05a.88.88,0,0,0-.43-1.17.89.89,0,0,0-1.18.44l-1.87,4a2.67,2.67,0,0,1-3.53,1.32l.75-1.61a.89.89,0,1,0-1.61-.74l-.75,1.62-1.6-.74.75-1.62a.88.88,0,1,0-1.6-.73l-.75,1.62-1.61-.74.75-1.62a.88.88,0,0,0-.42-1.18.9.9,0,0,0-1.18.44l-.75,1.62a2.65,2.65,0,0,1-1.28-3.53l3.38-7.28a.88.88,0,0,0-.43-1.18l-4-1.84a.89.89,0,0,0-.75,1.62l-3.75,8.09a6.19,6.19,0,0,0,3,8.24Z" transform="translate(-848.47 -216.12)"/><path class="cls-5" d="M1320.39,674.36l-3.2-1.47,3-6.46a4.4,4.4,0,0,0-2.13-5.87l-8-3.68a4.45,4.45,0,0,0-5.87,2.2l-1.87,4a.87.87,0,0,0,.42,1.17.89.89,0,0,0,1.18-.44l1.87-4a2.66,2.66,0,0,1,3.52-1.32l-.75,1.61a.88.88,0,0,0,.43,1.18.89.89,0,0,0,1.17-.44l.75-1.62,1.6.74-.75,1.61a.88.88,0,0,0,.42,1.18.9.9,0,0,0,1.18-.44l.75-1.62,1.6.74-.75,1.61a.88.88,0,0,0,.42,1.18.9.9,0,0,0,1.18-.44l.74-1.62a2.65,2.65,0,0,1,1.28,3.53l-3.37,7.26a.87.87,0,0,0,.43,1.17l2.39,1.11-3.74,8.07a4.46,4.46,0,0,1-5.87,2.2l-7.2-3.31a.89.89,0,0,0-1.17.44l-2.62,5.65-2.4-1.1a.85.85,0,0,0-.68,0l-.68.25a5.21,5.21,0,0,0-2.91,2.7.88.88,0,0,0,.42,1.18l12.8,5.87a.88.88,0,0,0,1.17-.44,5.16,5.16,0,0,0,.18-4l-.25-.69a.87.87,0,0,0-1.13-.52.9.9,0,0,0-.53,1.14l.25.69a3.45,3.45,0,0,1,.15,1.74l-11-5a3.36,3.36,0,0,1,1.43-1l.34-.12,6.07,2.78a.88.88,0,0,0,1.17-.44l2.62-5.65,3.2,1.47a6.23,6.23,0,0,0,8.22-3.08l3.74-8.07a.9.9,0,0,0,1.18-.44A.88.88,0,0,0,1320.39,674.36Zm-19.75,15.4L1299,689l2.24-4.85,1.6.74Z" transform="translate(-848.47 -216.12)"/><path class="cls-5" d="M1182.52,365.81l1.88-.31a.48.48,0,0,0,.39-.55.49.49,0,0,0-.55-.4l-1.88.31a.47.47,0,0,0-.39.55A.48.48,0,0,0,1182.52,365.81Z" transform="translate(-848.47 -216.12)"/><path class="cls-5" d="M1182.2,363.92l1.88-.3a.48.48,0,0,0-.16-.95l-1.88.3a.49.49,0,0,0-.39.56A.47.47,0,0,0,1182.2,363.92Z" transform="translate(-848.47 -216.12)"/><path class="cls-5" d="M1181.89,362l1.88-.31a.48.48,0,0,0,.39-.55.49.49,0,0,0-.55-.4l-1.88.31a.48.48,0,0,0,.16,1Z" transform="translate(-848.47 -216.12)"/><path class="cls-5" d="M1182.83,367.69l1.88-.31a.48.48,0,0,0,.39-.55.49.49,0,0,0-.55-.4l-1.88.31a.47.47,0,0,0-.39.55A.48.48,0,0,0,1182.83,367.69Z" transform="translate(-848.47 -216.12)"/><path class="cls-5" d="M1186.28,365.18l1.88-.31a.47.47,0,0,0,.39-.55.48.48,0,0,0-.55-.4l-1.88.31a.48.48,0,0,0-.39.55A.48.48,0,0,0,1186.28,365.18Z" transform="translate(-848.47 -216.12)"/><path class="cls-5" d="M1186,363.3l1.88-.31a.48.48,0,0,0,.39-.55.49.49,0,0,0-.55-.4l-1.88.31a.47.47,0,0,0-.39.55A.48.48,0,0,0,1186,363.3Z" transform="translate(-848.47 -216.12)"/><path class="cls-5" d="M1185.66,361.42l1.88-.31a.48.48,0,0,0-.16-.95l-1.89.3a.49.49,0,0,0,.17,1Z" transform="translate(-848.47 -216.12)"/><path class="cls-5" d="M1186.6,367.06l1.88-.3a.48.48,0,0,0-.16-.95l-1.88.3a.48.48,0,0,0-.39.56A.47.47,0,0,0,1186.6,367.06Z" transform="translate(-848.47 -216.12)"/><path class="cls-5" d="M1183.71,372.88a.46.46,0,0,0,.39-.54.48.48,0,0,0-.55-.4l-.47.08a2.41,2.41,0,0,1-2.74-2l-.81-4.73.94-.15.64,3.78a2.41,2.41,0,0,0,2.75,2l4.69-.77a2.37,2.37,0,0,0,2-2.75l-.4-2.36a.48.48,0,0,0-.55-.4.47.47,0,0,0-.39.55l.4,2.36a1.42,1.42,0,0,1-1.17,1.65l-.16-.94a.48.48,0,0,0-.55-.4.48.48,0,0,0-.39.55l.16.95-.93.15-.17-.95a.47.47,0,1,0-.93.16l.16.94-.94.16-.16-.95a.49.49,0,0,0-.55-.4.47.47,0,0,0-.39.55l.16,1a1.44,1.44,0,0,1-1.65-1.19l-.72-4.26a.49.49,0,0,0-.55-.4l-2.35.39a.48.48,0,0,0,.16.94l.81,4.73a3.36,3.36,0,0,0,3.84,2.78Z" transform="translate(-848.47 -216.12)"/><path class="cls-5" d="M1191.56,362.37l-1.87.3-.64-3.77a2.41,2.41,0,0,0-2.74-2l-4.67.76a2.38,2.38,0,0,0-1.94,2.75l.4,2.36a.48.48,0,0,0,.94-.16l-.41-2.36a1.41,1.41,0,0,1,1.17-1.64l.16.94a.48.48,0,0,0,.54.4.47.47,0,0,0,.39-.55l-.16-.94.94-.16.16.95a.48.48,0,0,0,.55.39.47.47,0,0,0,.38-.55l-.16-.94.94-.15.16.94a.48.48,0,0,0,.55.4.47.47,0,0,0,.38-.55l-.16-.94a1.44,1.44,0,0,1,1.65,1.18l.72,4.25a.47.47,0,0,0,.55.39l1.4-.22.8,4.72a2.37,2.37,0,0,1-1.94,2.74l-4.21.68a.48.48,0,0,0-.39.55l.56,3.31-1.4.22a.48.48,0,0,0-.31.2l-.22.32a2.72,2.72,0,0,0-.47,2.07.48.48,0,0,0,.55.4l7.48-1.22a.48.48,0,0,0,.39-.55,2.85,2.85,0,0,0-1.13-1.82l-.32-.23a.48.48,0,0,0-.66.11.49.49,0,0,0,.11.67l.32.23a1.85,1.85,0,0,1,.6.73l-6.42,1a1.74,1.74,0,0,1,.32-.88l.12-.16,3.54-.58a.47.47,0,0,0,.39-.55l-.56-3.3,1.87-.31a3.32,3.32,0,0,0,2.72-3.84l-.81-4.72a.46.46,0,0,0,.39-.54A.48.48,0,0,0,1191.56,362.37Zm-4.07,12.79-.94.15-.48-2.83.94-.15Z" transform="translate(-848.47 -216.12)"/><g class="cls-9"><path class="cls-5" d="M1134.06,269.19a3.48,3.48,0,0,0-.85.11l-28.14,7a3.78,3.78,0,0,0-2.87,3.68v37.18a5,5,0,1,1-5-5.05,4.87,4.87,0,0,1,1,.1,1.26,1.26,0,1,0,.5-2.48,7.58,7.58,0,1,0,6.07,7.43V280a1.26,1.26,0,0,1,1-1.23l28.13-7a1,1,0,0,1,1.23.95v5.63l-26.86,7.33a1.26,1.26,0,1,0,.66,2.43l26.2-7.14v28.66a5,5,0,1,1-4-4.95,1.26,1.26,0,0,0,.5-2.48A7.76,7.76,0,0,0,1130,302a7.58,7.58,0,1,0,7.58,7.58V272.7A3.51,3.51,0,0,0,1134.06,269.19Z" transform="translate(-848.47 -216.12)"/></g><path class="cls-5" d="M1321.65,380.83a1.17,1.17,0,0,0,1.4-.86,1.14,1.14,0,0,0-.84-1.4,1.16,1.16,0,0,0-1.4.86A1.15,1.15,0,0,0,1321.65,380.83Z" transform="translate(-848.47 -216.12)"/><path class="cls-5" d="M1360,390.13a1.18,1.18,0,0,0,1.4-.87,1.15,1.15,0,1,0-2.24-.53A1.15,1.15,0,0,0,1360,390.13Z" transform="translate(-848.47 -216.12)"/><path class="cls-5" d="M1349.33,399.48a1.18,1.18,0,0,0,1.4-.87,1.15,1.15,0,1,0-1.4.87Z" transform="translate(-848.47 -216.12)"/><path class="cls-5" d="M1326.8,394a1.17,1.17,0,1,0-.84-1.4A1.15,1.15,0,0,0,1326.8,394Z" transform="translate(-848.47 -216.12)"/><path class="cls-5" d="M1315.63,405.61a1.17,1.17,0,0,0,1.4-.86,1.14,1.14,0,0,0-.84-1.4,1.16,1.16,0,0,0-.56,2.26Z" transform="translate(-848.47 -216.12)"/><path class="cls-5" d="M1353.93,414.91a1.17,1.17,0,0,0,1.4-.87,1.15,1.15,0,0,0-.84-1.4,1.17,1.17,0,0,0-.56,2.27Z" transform="translate(-848.47 -216.12)"/><path class="cls-5" d="M1325.42,399.74l22.49,5.39a7,7,0,0,0,8.42-5.21,7,7,0,0,0-5.07-8.44l-22.48-5.39a7,7,0,0,0-8.42,5.21A6.94,6.94,0,0,0,1325.42,399.74Zm1.67-11.48a1.12,1.12,0,0,0,.85,1.24,1.17,1.17,0,0,0,1.41-.86l16.34,3.91a7.1,7.1,0,0,0-3,7,1.16,1.16,0,0,0,1.34.95,1.18,1.18,0,0,0,.94-1.36,5,5,0,0,1,0-.77,1.17,1.17,0,0,0,1.25-.87,1.13,1.13,0,0,0-.7-1.34,4.7,4.7,0,0,1,4.06-2.52,1.13,1.13,0,0,0,.85,1.25,1.16,1.16,0,0,0,1.34-.72,4.6,4.6,0,0,1,2.44,4.07,1.15,1.15,0,0,0-1.24.87,1.13,1.13,0,0,0,.7,1.34,4.68,4.68,0,0,1-4.06,2.51,1.15,1.15,0,0,0-.86-1.25,1.18,1.18,0,0,0-1.4.87L1331,398.67a7.11,7.11,0,0,0,3-7,1.16,1.16,0,0,0-1.34-.94,1.19,1.19,0,0,0-.95,1.36,4,4,0,0,1,0,.77,1.18,1.18,0,0,0-1.25.87,1.14,1.14,0,0,0,.71,1.34,4.68,4.68,0,0,1-4.06,2.51,1.13,1.13,0,0,0-2.19-.52,4.62,4.62,0,0,1-2.45-4.07,1.16,1.16,0,0,0,1.25-.87,1.14,1.14,0,0,0-.7-1.34A4.67,4.67,0,0,1,1327.09,388.26Z" transform="translate(-848.47 -216.12)"/><path class="cls-5" d="M1363.86,383.7l-42.65-10.2a3.51,3.51,0,0,0-4.2,2.6l-7.26,29.46a3.47,3.47,0,0,0,2.53,4.21l30.3,7.25a1.17,1.17,0,0,0,1.4-.87,1.14,1.14,0,0,0-.84-1.4l-30.3-7.25a1.14,1.14,0,0,1-.84-1.4l7.26-29.46a1.17,1.17,0,0,1,1.4-.87L1363.3,386a1.15,1.15,0,0,1,.84,1.4l-7.26,29.47a1.17,1.17,0,0,1-1.4.86l-7-1.68-.38-4.83a3.44,3.44,0,0,0-2.62-3.09l-19.21-4.6a3.5,3.5,0,0,0-3.77,1.57l-1.06,1.7a1.15,1.15,0,1,0,1.95,1.23l1.07-1.71a1.16,1.16,0,0,1,1.25-.52l19.21,4.6a1.13,1.13,0,0,1,.88,1l.43,5.66a1.16,1.16,0,0,0,.88,1l7.85,1.88a3.52,3.52,0,0,0,4.21-2.6l7.26-29.46A3.47,3.47,0,0,0,1363.86,383.7Z" transform="translate(-848.47 -216.12)"/><path class="cls-5" d="M1349.8,387.66a1.18,1.18,0,0,0,1.41-.87,1.16,1.16,0,0,0-.85-1.42l-18-4.34a1.18,1.18,0,0,0-.56,2.29Z" transform="translate(-848.47 -216.12)"/><path class="cls-5" d="M1335.81,396.21l4.5,1.08a1.18,1.18,0,0,0,1.41-.87,1.17,1.17,0,0,0-.85-1.41l-4.5-1.08a1.17,1.17,0,0,0-.56,2.28Z" transform="translate(-848.47 -216.12)"/><g class="cls-10"><path class="cls-5" d="M1243.85,465.13a.67.67,0,0,0,.66-.66.66.66,0,0,0-1.32,0A.67.67,0,0,0,1243.85,465.13Z" transform="translate(-848.47 -216.12)"/><path class="cls-5" d="M1266.16,465.13a.66.66,0,0,0,.66-.66.66.66,0,1,0-.66.66Z" transform="translate(-848.47 -216.12)"/><path class="cls-5" d="M1261.57,471.69a.66.66,0,1,0-.66-.66A.66.66,0,0,0,1261.57,471.69Z" transform="translate(-848.47 -216.12)"/><path class="cls-5" d="M1248.45,471.69a.66.66,0,1,0-.66-.66A.65.65,0,0,0,1248.45,471.69Z" transform="translate(-848.47 -216.12)"/><path class="cls-5" d="M1243.85,479.57a.66.66,0,1,0-.66-.66A.67.67,0,0,0,1243.85,479.57Z" transform="translate(-848.47 -216.12)"/><path class="cls-5" d="M1266.16,479.57a.66.66,0,1,0-.65-.66A.66.66,0,0,0,1266.16,479.57Z" transform="translate(-848.47 -216.12)"/><path class="cls-5" d="M1248.45,475h13.12a3.94,3.94,0,1,0,0-7.87h-13.12a3.94,3.94,0,1,0,0,7.87Zm-.64-6.47a.64.64,0,0,0,.64.57.66.66,0,0,0,.65-.66h9.54a3.94,3.94,0,0,0-1,2.62,3.89,3.89,0,0,0,.33,1.58.66.66,0,1,0,1.2-.53c-.05-.13-.09-.27-.13-.41a.64.64,0,0,0,0-1.27,2.62,2.62,0,0,1,1.9-1.9.64.64,0,0,0,1.28,0,2.62,2.62,0,0,1,1.9,1.9.64.64,0,0,0,0,1.27,2.62,2.62,0,0,1-1.9,1.9.66.66,0,0,0-.64-.57.67.67,0,0,0-.66.66h-9.54a3.92,3.92,0,0,0,.68-4.2.65.65,0,0,0-.86-.34.66.66,0,0,0-.34.86,2.25,2.25,0,0,1,.13.42.64.64,0,0,0,0,1.27,2.59,2.59,0,0,1-1.9,1.9.64.64,0,0,0-1.27,0,2.59,2.59,0,0,1-1.9-1.9.64.64,0,0,0,0-1.27A2.59,2.59,0,0,1,1247.81,468.5Z" transform="translate(-848.47 -216.12)"/><path class="cls-5" d="M1267.48,461.19h-24.94a2,2,0,0,0-2,2v17.06a2,2,0,0,0,2,2h17.72a.66.66,0,0,0,0-1.31h-17.72a.67.67,0,0,1-.66-.66V463.16a.67.67,0,0,1,.66-.66h24.94a.66.66,0,0,1,.65.66v17.06a.66.66,0,0,1-.65.66h-4.12l-.87-2.59a2,2,0,0,0-1.87-1.35h-11.23a2,2,0,0,0-1.87,1.35l-.35,1.07a.65.65,0,1,0,1.24.41l.36-1.07a.65.65,0,0,1,.62-.45h11.23a.66.66,0,0,1,.63.45l1,3a.65.65,0,0,0,.62.45h4.6a2,2,0,0,0,2-2V463.16A2,2,0,0,0,1267.48,461.19Z" transform="translate(-848.47 -216.12)"/><path class="cls-5" d="M1260.26,465.13a.66.66,0,0,0,.65-.66.65.65,0,0,0-.65-.65h-10.5a.65.65,0,0,0-.66.65.66.66,0,0,0,.66.66Z" transform="translate(-848.47 -216.12)"/><path class="cls-5" d="M1253.7,471.69h2.62a.66.66,0,1,0,0-1.31h-2.62a.66.66,0,1,0,0,1.31Z" transform="translate(-848.47 -216.12)"/></g><g class="cls-11"><path class="cls-5" d="M1627.55,275.16c-36-8.53-72.49,14.09-81.37,50.42s13.16,72.84,49.15,81.37,72.49-14.08,81.37-50.42S1663.53,283.7,1627.55,275.16Zm-29.92,122.38c-30.84-7.32-49.74-38.6-42.13-69.75s38.9-50.53,69.74-43.21,49.75,38.6,42.14,69.74S1628.48,404.85,1597.63,397.54Z" transform="translate(-848.47 -216.12)"/><path class="cls-5" d="M1523.1,399.11a4.87,4.87,0,0,0,5.82-3.6,4.78,4.78,0,0,0-3.51-5.81,4.87,4.87,0,0,0-5.82,3.6A4.78,4.78,0,0,0,1523.1,399.11Z" transform="translate(-848.47 -216.12)"/><path class="cls-5" d="M1556.94,258.58a4.86,4.86,0,0,0,5.81-3.6,4.77,4.77,0,0,0-3.51-5.81,4.86,4.86,0,0,0-5.81,3.6A4.77,4.77,0,0,0,1556.94,258.58Z" transform="translate(-848.47 -216.12)"/><path class="cls-5" d="M1616,322.23a19.45,19.45,0,0,0-23.25,14.41,19.12,19.12,0,0,0,14,23.24,19.44,19.44,0,0,0,23.24-14.4A19.13,19.13,0,0,0,1616,322.23Zm-6.9,28.24a9.57,9.57,0,0,1-7-11.62,9.75,9.75,0,0,1,11.63-7.21,9.57,9.57,0,0,1,7,11.63A9.72,9.72,0,0,1,1609.14,350.47Z" transform="translate(-848.47 -216.12)"/><path class="cls-5" d="M1725.32,258.51l-177.14-42a14.6,14.6,0,0,0-17.44,10.8L1487,406.17a14.35,14.35,0,0,0,10.53,17.43l177.15,42a14.59,14.59,0,0,0,17.43-10.8L1735.85,276A14.35,14.35,0,0,0,1725.32,258.51Zm-42.51,194.08a4.88,4.88,0,0,1-5.81,3.61l-177.14-42a4.78,4.78,0,0,1-3.51-5.81l43.72-178.86a4.86,4.86,0,0,1,5.81-3.6l177.14,42a4.79,4.79,0,0,1,3.51,5.81Z" transform="translate(-848.47 -216.12)"/><path class="cls-5" d="M1709.12,302.16a18.63,18.63,0,0,0,8.34-11.5,18.23,18.23,0,0,0-27.35-20l-12.74,7.89a4.73,4.73,0,0,1-5.8-.63,84.74,84.74,0,0,0-39.42-21.61,85.69,85.69,0,0,0-45.09,1.57,4.74,4.74,0,0,1-5.46-2l-7.69-12.74a18,18,0,0,0-11.33-8.27,18.63,18.63,0,0,0-22.26,13.79,18.43,18.43,0,0,0,2.12,14l7.69,12.74a4.84,4.84,0,0,1-.69,5.85,88.1,88.1,0,0,0-21.91,39.94,87.2,87.2,0,0,0,1,45.38,4.89,4.89,0,0,1-2.08,5.53L1513.76,380a18.68,18.68,0,0,0-8.35,11.5,18.25,18.25,0,0,0,27.36,20l12.74-7.9a4.74,4.74,0,0,1,5.8.64,85,85,0,0,0,84.5,20,4.73,4.73,0,0,1,5.46,2L1649,439a18,18,0,0,0,11.33,8.28,18.62,18.62,0,0,0,22.25-13.79,18.38,18.38,0,0,0-2.11-14l-7.7-12.74a4.85,4.85,0,0,1,.7-5.85A88.2,88.2,0,0,0,1695.35,361a87.2,87.2,0,0,0-1.06-45.38,4.87,4.87,0,0,1,2.09-5.52Zm-24,16.27a77.34,77.34,0,0,1,.94,40.32,78.21,78.21,0,0,1-19.47,35.48,14.62,14.62,0,0,0-2,17.61l7.7,12.74a8.91,8.91,0,0,1-9.62,13.26,8.57,8.57,0,0,1-5.41-3.95l-7.7-12.74a14.14,14.14,0,0,0-8.85-6.45,14.32,14.32,0,0,0-7.56.26C1607,423,1577.48,416,1558,397.17a14.26,14.26,0,0,0-17.47-1.86l-12.74,7.9a8.71,8.71,0,0,1-13.06-9.54,8.87,8.87,0,0,1,4-5.49l12.74-7.9a14.67,14.67,0,0,0,6.33-16.59,77.82,77.82,0,0,1,18.53-75.8,14.62,14.62,0,0,0,2-17.62l-7.69-12.73a8.73,8.73,0,0,1-1-6.68,8.9,8.9,0,0,1,10.63-6.59,8.6,8.6,0,0,1,5.41,4l7.69,12.74a14.21,14.21,0,0,0,16.41,6.18c26.07-8.07,55.6-1.07,75.07,17.8a14.26,14.26,0,0,0,17.47,1.86l12.74-7.9a8.71,8.71,0,0,1,13.07,9.54,8.94,8.94,0,0,1-4,5.49l-12.74,7.89A14.7,14.7,0,0,0,1685.08,318.43Z" transform="translate(-848.47 -216.12)"/></g><g class="cls-12"><path class="cls-5" d="M991.76,449.1a12.12,12.12,0,1,0,12.85,11.32A12.05,12.05,0,0,0,991.76,449.1Zm1.51,22.45a10.38,10.38,0,1,1,9.62-11A10.32,10.32,0,0,1,993.27,471.55Z" transform="translate(-848.47 -216.12)"/><path class="cls-5" d="M1006.4,474.13a.86.86,0,0,0,.81-.92.87.87,0,0,0-.92-.8.85.85,0,0,0-.8.91A.86.86,0,0,0,1006.4,474.13Z" transform="translate(-848.47 -216.12)"/><path class="cls-5" d="M1004.71,448.28a.87.87,0,1,0-.92-.81A.86.86,0,0,0,1004.71,448.28Z" transform="translate(-848.47 -216.12)"/><path class="cls-5" d="M980.55,475.83a.87.87,0,1,0-.92-.81A.87.87,0,0,0,980.55,475.83Z" transform="translate(-848.47 -216.12)"/><path class="cls-5" d="M978.86,450a.86.86,0,0,0,.8-.91.87.87,0,0,0-.92-.81.85.85,0,0,0-.8.92A.86.86,0,0,0,978.86,450Z" transform="translate(-848.47 -216.12)"/><path class="cls-5" d="M992.34,457.74A3.46,3.46,0,1,0,996,461,3.47,3.47,0,0,0,992.34,457.74Zm.35,5.18a1.73,1.73,0,1,1,1.6-1.84A1.72,1.72,0,0,1,992.69,462.92Z" transform="translate(-848.47 -216.12)"/><path class="cls-5" d="M1007.63,441.15,975,443.23a2.6,2.6,0,0,0-2.41,2.76l2.22,32.81a2.61,2.61,0,0,0,2.75,2.43l32.68-2.08a2.58,2.58,0,0,0,2.41-2.76l-2.22-32.81A2.6,2.6,0,0,0,1007.63,441.15Zm3.25,35.35a.86.86,0,0,1-.8.92L977.4,479.5a.86.86,0,0,1-.92-.81l-2.22-32.81a.86.86,0,0,1,.81-.92l32.67-2.08a.86.86,0,0,1,.92.81Z" transform="translate(-848.47 -216.12)"/><path class="cls-5" d="M1007.22,449.45a3.3,3.3,0,0,0,.81-2.4,3.34,3.34,0,0,0-3.52-3.1,3.25,3.25,0,0,0-2.26,1.12l-1.76,2a.87.87,0,0,1-1,.2,15.39,15.39,0,0,0-15.59,1,.87.87,0,0,1-1-.06l-2-1.78a3.29,3.29,0,0,0-5.46,2.7,3.35,3.35,0,0,0,1.12,2.28l2,1.77a.86.86,0,0,1,.2,1,15.56,15.56,0,0,0,1.06,15.66.86.86,0,0,1-.06,1.05l-1.76,2a3.32,3.32,0,1,0,5,4.38l1.75-2a.87.87,0,0,1,1-.2,15.39,15.39,0,0,0,15.59-1,.87.87,0,0,1,1.05.06l2,1.78a3.35,3.35,0,0,0,2.4.82,3.31,3.31,0,0,0,1.94-5.8l-2-1.77a.87.87,0,0,1-.2-1,15.56,15.56,0,0,0-1.06-15.66.87.87,0,0,1,.06-1.05Zm-3.24,4a13.84,13.84,0,0,1,.94,13.91,2.59,2.59,0,0,0,.61,3.11l2,1.77a1.58,1.58,0,0,1-.93,2.77,1.53,1.53,0,0,1-1.14-.39l-2-1.78a2.54,2.54,0,0,0-1.87-.63,2.46,2.46,0,0,0-1.28.44,13.89,13.89,0,0,1-13.85.88,2.58,2.58,0,0,0-3.1.59l-1.75,2a1.56,1.56,0,0,1-1.08.53,1.59,1.59,0,0,1-1.68-1.48,1.53,1.53,0,0,1,.38-1.14l1.76-2a2.58,2.58,0,0,0,.18-3.16,13.84,13.84,0,0,1-.94-13.91,2.6,2.6,0,0,0-.6-3.11l-2-1.77a1.62,1.62,0,0,1-.53-1.09,1.57,1.57,0,0,1,2.61-1.29l2,1.78a2.59,2.59,0,0,0,3.15.2,13.9,13.9,0,0,1,13.85-.89,2.56,2.56,0,0,0,3.1-.59l1.76-2a1.58,1.58,0,0,1,2.76,1,1.53,1.53,0,0,1-.39,1.14l-1.76,2A2.6,2.6,0,0,0,1004,453.48Z" transform="translate(-848.47 -216.12)"/></g><circle class="cls-5" cx="362.6" cy="77.57" r="3.5"/><circle class="cls-13" cx="592.6" cy="289.57" r="17.5"/><circle class="cls-5" cx="232.6" cy="315.57" r="3.5"/><circle class="cls-14" cx="134.6" cy="127.57" r="2.5"/><circle class="cls-5" cx="574.6" cy="390.57" r="3.5"/><circle class="cls-15" cx="445.6" cy="362.57" r="3.5"/><circle class="cls-15" cx="537.6" cy="175.57" r="3.5"/><circle class="cls-16" cx="275.6" cy="552.57" r="12.5"/><circle class="cls-17" cx="275.6" cy="552.57" r="3.75"/><circle class="cls-17" cx="275.6" cy="552.57" r="2.5"/><circle class="cls-16" cx="486.1" cy="297.07" r="9"/><circle class="cls-17" cx="486.1" cy="297.07" r="2.7"/><circle class="cls-17" cx="486.1" cy="297.07" r="1.8"/><circle class="cls-16" cx="22.1" cy="62.07" r="9"/><circle class="cls-17" cx="22.1" cy="62.07" r="2.7"/><circle class="cls-17" cx="22.1" cy="62.07" r="1.8"/><circle class="cls-1" cx="344.6" cy="287.57" r="179.5"/><circle class="cls-2" cx="344.6" cy="287.57" r="78.5"/><circle class="cls-3" cx="344.6" cy="287.57" r="37.5"/><g class="cls-4"><path class="cls-5" d="M1121.55,450.26a.43.43,0,1,0-.43-.43A.43.43,0,0,0,1121.55,450.26Z" transform="translate(-848.47 -216.12)"/><path class="cls-5" d="M1113.34,445.94a.43.43,0,1,0-.43-.43A.44.44,0,0,0,1113.34,445.94Z" transform="translate(-848.47 -216.12)"/><path class="cls-5" d="M1113.34,452.85a.43.43,0,1,0-.43-.43A.44.44,0,0,0,1113.34,452.85Z" transform="translate(-848.47 -216.12)"/><path class="cls-5" d="M1123.28,441.19h-16.41a1.3,1.3,0,0,0-1.3,1.3v12.95a1.3,1.3,0,0,0,1.3,1.3h16.41a1.3,1.3,0,0,0,1.29-1.3V442.49A1.3,1.3,0,0,0,1123.28,441.19Zm.43,14.25a.43.43,0,0,1-.43.43h-16.41a.43.43,0,0,1-.43-.43V442.49a.44.44,0,0,1,.43-.44h16.41a.44.44,0,0,1,.43.44Z" transform="translate(-848.47 -216.12)"/><path class="cls-5" d="M1115.07,449a1.73,1.73,0,1,0-1.73,1.73A1.72,1.72,0,0,0,1115.07,449Zm-1.73.87a.87.87,0,1,1,.87-.87A.87.87,0,0,1,1113.34,449.83Z" transform="translate(-848.47 -216.12)"/><path class="cls-5" d="M1110.72,450.47a.43.43,0,1,0-.74.43,3.94,3.94,0,0,0,1.91,1.67.41.41,0,0,0,.16,0,.43.43,0,0,0,.16-.83A3.14,3.14,0,0,1,1110.72,450.47Z" transform="translate(-848.47 -216.12)"/><path class="cls-5" d="M1116,447.45a.44.44,0,0,0,.38.22.42.42,0,0,0,.21-.06.43.43,0,0,0,.16-.59,3.87,3.87,0,0,0-1.91-1.66.43.43,0,1,0-.32.8A3,3,0,0,1,1116,447.45Z" transform="translate(-848.47 -216.12)"/><path class="cls-5" d="M1121.55,442.92a1.3,1.3,0,0,0-1.3,1.29,1.32,1.32,0,0,0,.39.93l-1.33,2.86a6,6,0,1,0-1.2,4.68.43.43,0,0,0-.68-.53,5.18,5.18,0,1,1,1.1-3.19c0,.14,0,.27,0,.4s0,.27,0,.4a.49.49,0,0,1,0,.11l-.06.14a.44.44,0,0,1-.39.25h-.75a.43.43,0,0,0-.43-.43h-1.3a.43.43,0,0,0-.43.43v.86a.43.43,0,0,0,.43.43h1.3a.43.43,0,0,0,.43-.43h.75a1.29,1.29,0,0,0,1.17-.75l2.28-4.87h.12a1.3,1.3,0,0,0,0-2.59Zm0,1.73a.44.44,0,0,1-.43-.44.43.43,0,1,1,.86,0A.44.44,0,0,1,1121.55,444.65Z" transform="translate(-848.47 -216.12)"/><path class="cls-5" d="M1122,452.85v-1.73a.43.43,0,1,0-.86,0v1.73a.43.43,0,0,0,0,.86v.44a.43.43,0,0,0,.86,0v-.44a.43.43,0,1,0,0-.86Z" transform="translate(-848.47 -216.12)"/></g><g class="cls-6"><path class="cls-5" d="M1493,764.89l-2.4,1.58-1.59-2.42a52.07,52.07,0,0,0-32.86-22.46,8.73,8.73,0,0,0-8.22-6.94,57.69,57.69,0,0,0-56.26,36.89,8.73,8.73,0,0,0,3.18,10.33,52.31,52.31,0,0,0,7.53,39l1.59,2.42-2.41,1.58a8.66,8.66,0,0,0-2.44,12l15.35,23.34a8.66,8.66,0,0,0,9,3.77l9.22-1.85a14.14,14.14,0,0,0,5-2.07l7.77-5.09a2.88,2.88,0,0,0,.82-4l-23.88-36.3a2.88,2.88,0,0,0-4-.84l-4.82,3.15a2.9,2.9,0,0,0,3.19,4.84l2.4-1.57,20.69,31.46-4.81,3.15-17.51-26.62a2.88,2.88,0,1,0-4.81,3.16l16.75,25.46-7.21,1.45a2.91,2.91,0,0,1-3-1.25l-15.35-23.35a2.89,2.89,0,0,1,.82-4l4.81-3.15a2.88,2.88,0,0,0,.81-4l-3.18-4.84a46.51,46.51,0,0,1-6.76-34.29,8.68,8.68,0,0,0,4.1-1.35,9,9,0,0,0,3.43-4.29A40.08,40.08,0,0,1,1447.16,752a8.71,8.71,0,0,0,8.19-4.69,46.23,46.23,0,0,1,28.81,19.85l3.19,4.85a2.89,2.89,0,0,0,4,.84l4.82-3.16a2.9,2.9,0,0,1,4,.84l15.35,23.35a2.88,2.88,0,0,1,0,3.24l-4.19,6-16.75-25.46a2.87,2.87,0,1,0-4.81,3.15l17.5,26.62-4.81,3.16-20.69-31.46,2.41-1.58a2.9,2.9,0,0,0-3.19-4.84l-4.81,3.16a2.88,2.88,0,0,0-.82,4l23.88,36.31a2.9,2.9,0,0,0,4,.84L1511,812a14.07,14.07,0,0,0,3.9-3.79l5.35-7.71a8.62,8.62,0,0,0,.11-9.72L1505,767.42A8.69,8.69,0,0,0,1493,764.89Zm-45.59-18.62a45.82,45.82,0,0,0-44.85,29.41,3,3,0,0,1-3.36,2,3,3,0,0,1-2.14-4,51.95,51.95,0,0,1,50.68-33.24,3,3,0,0,1,2.22,1.14,2.89,2.89,0,0,1,.57,2.4A3,3,0,0,1,1447.38,746.27Z" transform="translate(-848.47 -216.12)"/></g><path class="cls-5" d="M1074.69,618.93a2.39,2.39,0,0,0,1.55-3,2.43,2.43,0,0,0-3-1.58,2.38,2.38,0,0,0-1.54,3A2.42,2.42,0,0,0,1074.69,618.93Z" transform="translate(-848.47 -216.12)"/><path class="cls-5" d="M1087.32,614.91a2.4,2.4,0,0,0,1.54-3,2.44,2.44,0,0,0-3-1.59,2.4,2.4,0,0,0-1.54,3A2.44,2.44,0,0,0,1087.32,614.91Z" transform="translate(-848.47 -216.12)"/><path class="cls-5" d="M1062.07,623a2.39,2.39,0,0,0,1.54-3,2.42,2.42,0,0,0-3-1.59,2.39,2.39,0,0,0-1.54,3A2.43,2.43,0,0,0,1062.07,623Z" transform="translate(-848.47 -216.12)"/><path class="cls-5" d="M1092.59,600.48l-43.39,13.67a3.6,3.6,0,0,0-2.31,4.54L1061,662.52a3.65,3.65,0,0,0,4.54,2.39l43.39-13.68a3.59,3.59,0,0,0,2.31-4.54l-14.12-43.83A3.64,3.64,0,0,0,1092.59,600.48ZM1109,647.41a1.2,1.2,0,0,1-.77,1.51l-43.39,13.68a1.23,1.23,0,0,1-1.52-.79L1049.18,618a1.19,1.19,0,0,1,.77-1.51l43.39-13.68a1.21,1.21,0,0,1,1.51.8Z" transform="translate(-848.47 -216.12)"/><path class="cls-5" d="M1082.72,644.16a1.2,1.2,0,0,0-.77,1.51l1.48,4.6a1.2,1.2,0,0,0,1.5.79,1.19,1.19,0,0,0,.77-1.51l-1.48-4.6A1.2,1.2,0,0,0,1082.72,644.16Z" transform="translate(-848.47 -216.12)"/><path class="cls-5" d="M1092,629.81a1.2,1.2,0,0,0-.76,1.51l4.79,14.93a1.19,1.19,0,1,0,2.26-.72l-4.79-14.93A1.19,1.19,0,0,0,1092,629.81Z" transform="translate(-848.47 -216.12)"/><path class="cls-5" d="M1067.89,641.3a1.19,1.19,0,0,0-.76,1.5l3.68,11.49a1.2,1.2,0,0,0,1.5.79,1.18,1.18,0,0,0,.77-1.5l-3.69-11.49A1.19,1.19,0,0,0,1067.89,641.3Z" transform="translate(-848.47 -216.12)"/><path class="cls-5" d="M1069.15,633.35l-.21.06a3.65,3.65,0,0,0-2.75-1.43l-1.92-6a1.22,1.22,0,0,0-1.51-.79,1.2,1.2,0,0,0-.77,1.51l1.92,6a3.59,3.59,0,0,0-1.39,2.75l-.21.06a1.2,1.2,0,0,0-.77,1.52,1.21,1.21,0,0,0,1.51.79l.21-.07a3.6,3.6,0,0,0,4,1.29,3.55,3.55,0,0,0,2.47-3.31l.21-.07a1.2,1.2,0,0,0,.77-1.51A1.21,1.21,0,0,0,1069.15,633.35Zm-2.68,3.38a1.21,1.21,0,0,1-1.51-.79,1.18,1.18,0,0,1,.77-1.51,1.21,1.21,0,0,1,.74,2.3Z" transform="translate(-848.47 -216.12)"/><path class="cls-5" d="M1084,636.22l-.21.06a3.63,3.63,0,0,0-2.74-1.43L1076.88,622a1.2,1.2,0,0,0-1.51-.79,1.19,1.19,0,0,0-.76,1.51l4.14,12.87a3.57,3.57,0,0,0-1.4,2.74l-.21.06a1.21,1.21,0,0,0,.74,2.3l.21-.06a3.6,3.6,0,0,0,4,1.29,3.55,3.55,0,0,0,2.46-3.31l.21-.07a1.2,1.2,0,0,0,.77-1.51A1.22,1.22,0,0,0,1084,636.22Zm-2.67,3.38a1.21,1.21,0,0,1-1.51-.79,1.19,1.19,0,1,1,1.51.79Z" transform="translate(-848.47 -216.12)"/><path class="cls-5" d="M1093.29,621.85l-.21.07a3.59,3.59,0,0,0-2.74-1.44l-.81-2.52a1.22,1.22,0,0,0-1.52-.79,1.2,1.2,0,0,0-.77,1.51l.81,2.52a3.58,3.58,0,0,0-1.39,2.75l-.21.06a1.19,1.19,0,0,0-.77,1.51,1.21,1.21,0,0,0,1.51.8l.21-.07a3.61,3.61,0,0,0,4,1.29,3.56,3.56,0,0,0,2.47-3.32l.21-.06a1.2,1.2,0,0,0,.77-1.51A1.22,1.22,0,0,0,1093.29,621.85Zm-2.68,3.39a1.21,1.21,0,0,1-1.51-.8,1.19,1.19,0,1,1,1.51.8Z" transform="translate(-848.47 -216.12)"/><path class="cls-5" d="M1186.14,619.73a.8.8,0,1,0-.39-1.05A.79.79,0,0,0,1186.14,619.73Z" transform="translate(-848.47 -216.12)"/><path class="cls-5" d="M1187.46,616.83a.79.79,0,0,0,1-.4.78.78,0,0,0-.39-1,.8.8,0,0,0-.66,1.45Z" transform="translate(-848.47 -216.12)"/><path class="cls-5" d="M1193.4,603.78a3.19,3.19,0,0,0-4.21,1.61,3.16,3.16,0,0,0,1.55,4.21A3.19,3.19,0,0,0,1195,608,3.16,3.16,0,0,0,1193.4,603.78Zm-2,4.37a1.6,1.6,0,0,1,1.33-2.91,1.57,1.57,0,0,1,.78,2.1A1.62,1.62,0,0,1,1191.4,608.15Z" transform="translate(-848.47 -216.12)"/><path class="cls-5" d="M1199.38,590.68a17.6,17.6,0,1,0,8.55,23.18A17.62,17.62,0,0,0,1199.38,590.68Zm-14,30.56a15.85,15.85,0,0,1-7.77-21.06,15.82,15.82,0,1,1,7.77,21.06Z" transform="translate(-848.47 -216.12)"/><path class="cls-5" d="M1194.73,600.87a6.4,6.4,0,1,0,3.11,8.43A6.41,6.41,0,0,0,1194.73,600.87Zm-4.65,10.19a4.8,4.8,0,1,1,6.31-2.42A4.76,4.76,0,0,1,1190.08,611.06Z" transform="translate(-848.47 -216.12)"/><path class="cls-5" d="M1184.21,616.71a12.51,12.51,0,0,1-4-5.53.78.78,0,0,0-1-.46.81.81,0,0,0-.47,1,14.17,14.17,0,0,0,4.53,6.22l.16.1a.79.79,0,0,0,1-.24A.8.8,0,0,0,1184.21,616.71Z" transform="translate(-848.47 -216.12)"/><path class="cls-5" d="M1185.63,613.74a9.43,9.43,0,0,1-2.41-3.52.79.79,0,0,0-1-.44.81.81,0,0,0-.45,1,11,11,0,0,0,2.82,4.11.9.9,0,0,0,.2.14.8.8,0,0,0,.92-.2A.79.79,0,0,0,1185.63,613.74Z" transform="translate(-848.47 -216.12)"/><path class="cls-5" d="M1197.33,595.11a.8.8,0,1,0-.39-1.06A.8.8,0,0,0,1197.33,595.11Z" transform="translate(-848.47 -216.12)"/><path class="cls-5" d="M1196,598a.8.8,0,0,0,1-.4.79.79,0,1,0-1.44-.65A.78.78,0,0,0,1196,598Z" transform="translate(-848.47 -216.12)"/><path class="cls-5" d="M1200.92,595.41a.8.8,0,0,0-1,1.26,12.59,12.59,0,0,1,4,5.53.79.79,0,0,0,.41.45.81.81,0,0,0,1.08-1A14.09,14.09,0,0,0,1200.92,595.41Z" transform="translate(-848.47 -216.12)"/><path class="cls-5" d="M1199.58,598.45a.8.8,0,0,0-1.07,1.19,9.43,9.43,0,0,1,2.41,3.52.79.79,0,0,0,.41.43.83.83,0,0,0,.62,0,.81.81,0,0,0,.45-1A10.84,10.84,0,0,0,1199.58,598.45Z" transform="translate(-848.47 -216.12)"/><path class="cls-5" d="M1180.57,525.55a.91.91,0,1,0-.91-.9A.9.9,0,0,0,1180.57,525.55Z" transform="translate(-848.47 -216.12)"/><path class="cls-5" d="M1180.57,521.92a.91.91,0,1,0-.91-.91A.91.91,0,0,0,1180.57,521.92Z" transform="translate(-848.47 -216.12)"/><path class="cls-5" d="M1180.57,505.55a3.64,3.64,0,1,0,3.64,3.64A3.64,3.64,0,0,0,1180.57,505.55Zm0,5.46a1.82,1.82,0,1,1,1.82-1.82A1.83,1.83,0,0,1,1180.57,511Z" transform="translate(-848.47 -216.12)"/><path class="cls-5" d="M1180.57,489.19a20,20,0,1,0,20,20A20,20,0,0,0,1180.57,489.19Zm0,38.18a18.18,18.18,0,1,1,18.18-18.18A18.2,18.2,0,0,1,1180.57,527.37Z" transform="translate(-848.47 -216.12)"/><path class="cls-5" d="M1180.57,501.92a7.27,7.27,0,1,0,7.27,7.27A7.28,7.28,0,0,0,1180.57,501.92Zm0,12.73a5.46,5.46,0,1,1,5.45-5.46A5.46,5.46,0,0,1,1180.57,514.65Z" transform="translate(-848.47 -216.12)"/><path class="cls-5" d="M1177.15,523.33a14.49,14.49,0,0,1-6.85-3.84.91.91,0,1,0-1.28,1.29,16.34,16.34,0,0,0,7.7,4.32.82.82,0,0,0,.22,0,.91.91,0,0,0,.21-1.79Z" transform="translate(-848.47 -216.12)"/><path class="cls-5" d="M1177.22,519.58a11.08,11.08,0,0,1-4.2-2.52.91.91,0,1,0-1.26,1.31,12.88,12.88,0,0,0,4.9,2.94,1,1,0,0,0,.28,0,.92.92,0,0,0,.87-.63A.91.91,0,0,0,1177.22,519.58Z" transform="translate(-848.47 -216.12)"/><path class="cls-5" d="M1180.57,494.64a.91.91,0,1,0-.91-.9A.9.9,0,0,0,1180.57,494.64Z" transform="translate(-848.47 -216.12)"/><path class="cls-5" d="M1180.57,498.28a.91.91,0,1,0-.91-.91A.91.91,0,0,0,1180.57,498.28Z" transform="translate(-848.47 -216.12)"/><path class="cls-5" d="M1184.42,493.28a.91.91,0,1,0-.43,1.77,14.49,14.49,0,0,1,6.85,3.84.92.92,0,0,0,1.28,0,.91.91,0,0,0,0-1.29A16.34,16.34,0,0,0,1184.42,493.28Z" transform="translate(-848.47 -216.12)"/><path class="cls-5" d="M1184.48,497.07a.91.91,0,0,0-.56,1.74,10.93,10.93,0,0,1,4.2,2.51.92.92,0,0,0,.63.25.91.91,0,0,0,.63-1.56A12.8,12.8,0,0,0,1184.48,497.07Z" transform="translate(-848.47 -216.12)"/><g class="cls-7"><path class="cls-5" d="M1372.57,295.92a1.32,1.32,0,1,0-1.32-1.32A1.32,1.32,0,0,0,1372.57,295.92Z" transform="translate(-848.47 -216.12)"/><path class="cls-5" d="M1372.57,290.64a1.32,1.32,0,1,0-1.32-1.31A1.32,1.32,0,0,0,1372.57,290.64Z" transform="translate(-848.47 -216.12)"/><path class="cls-5" d="M1372.57,266.92a5.27,5.27,0,1,0,5.27,5.27A5.27,5.27,0,0,0,1372.57,266.92Zm0,7.91a2.64,2.64,0,1,1,2.64-2.64A2.65,2.65,0,0,1,1372.57,274.83Z" transform="translate(-848.47 -216.12)"/><path class="cls-5" d="M1372.57,243.19a29,29,0,1,0,29,29A29,29,0,0,0,1372.57,243.19Zm0,55.36a26.36,26.36,0,1,1,26.36-26.36A26.38,26.38,0,0,1,1372.57,298.55Z" transform="translate(-848.47 -216.12)"/><path class="cls-5" d="M1372.57,261.65a10.55,10.55,0,1,0,10.55,10.54A10.56,10.56,0,0,0,1372.57,261.65Zm0,18.45a7.91,7.91,0,1,1,7.91-7.91A7.92,7.92,0,0,1,1372.57,280.1Z" transform="translate(-848.47 -216.12)"/><path class="cls-5" d="M1367.61,292.69a21,21,0,0,1-9.93-5.56,1.32,1.32,0,0,0-1.86,1.87,23.7,23.7,0,0,0,11.17,6.26,1.63,1.63,0,0,0,.31,0,1.32,1.32,0,0,0,.31-2.6Z" transform="translate(-848.47 -216.12)"/><path class="cls-5" d="M1367.71,287.25a15.83,15.83,0,0,1-6.09-3.65,1.32,1.32,0,0,0-1.83,1.91,18.53,18.53,0,0,0,7.11,4.25,1.45,1.45,0,0,0,.41.06,1.32,1.32,0,0,0,.4-2.57Z" transform="translate(-848.47 -216.12)"/><path class="cls-5" d="M1372.57,251.1a1.32,1.32,0,1,0-1.32-1.32A1.32,1.32,0,0,0,1372.57,251.1Z" transform="translate(-848.47 -216.12)"/><path class="cls-5" d="M1372.57,256.37a1.32,1.32,0,1,0-1.32-1.32A1.32,1.32,0,0,0,1372.57,256.37Z" transform="translate(-848.47 -216.12)"/><path class="cls-5" d="M1378.15,249.12a1.32,1.32,0,0,0-.62,2.57,21.09,21.09,0,0,1,9.93,5.56,1.29,1.29,0,0,0,.93.39,1.3,1.3,0,0,0,.93-.39,1.32,1.32,0,0,0,0-1.86A23.72,23.72,0,0,0,1378.15,249.12Z" transform="translate(-848.47 -216.12)"/><path class="cls-5" d="M1378.24,254.62a1.32,1.32,0,0,0-1.66.85,1.3,1.3,0,0,0,.85,1.66,15.83,15.83,0,0,1,6.09,3.65,1.35,1.35,0,0,0,.91.36,1.32,1.32,0,0,0,.92-2.27A18.53,18.53,0,0,0,1378.24,254.62Z" transform="translate(-848.47 -216.12)"/></g><g class="cls-8"><path class="cls-5" d="M881,670.27l13.3,2.71a3.43,3.43,0,0,0,4-2.69,3.4,3.4,0,0,0-2.61-4l-13.3-2.71a3.45,3.45,0,0,0-4,2.69A3.38,3.38,0,0,0,881,670.27Z" transform="translate(-848.47 -216.12)"/><path class="cls-5" d="M883.78,657l13.3,2.71a3.45,3.45,0,0,0,4-2.69,3.4,3.4,0,0,0-2.62-4l-13.3-2.71a3.45,3.45,0,0,0-4,2.69A3.4,3.4,0,0,0,883.78,657Z" transform="translate(-848.47 -216.12)"/><path class="cls-5" d="M886.54,643.63l13.29,2.71a3.44,3.44,0,0,0,4-2.69,3.39,3.39,0,0,0-2.62-4L888,636.91a3.43,3.43,0,0,0-4,2.68A3.38,3.38,0,0,0,886.54,643.63Z" transform="translate(-848.47 -216.12)"/><path class="cls-5" d="M878.28,683.59l13.29,2.71a3.44,3.44,0,0,0,4-2.69,3.38,3.38,0,0,0-2.62-4l-13.29-2.71a3.44,3.44,0,0,0-4,2.69A3.39,3.39,0,0,0,878.28,683.59Z" transform="translate(-848.47 -216.12)"/><path class="cls-5" d="M907.67,675.78l13.29,2.7a3.43,3.43,0,0,0,4-2.68,3.38,3.38,0,0,0-2.62-4l-13.29-2.71a3.44,3.44,0,0,0-4,2.68A3.4,3.4,0,0,0,907.67,675.78Z" transform="translate(-848.47 -216.12)"/><path class="cls-5" d="M910.42,662.46l13.3,2.71a3.43,3.43,0,0,0,4-2.69,3.39,3.39,0,0,0-2.61-4l-13.3-2.71a3.45,3.45,0,0,0-4,2.69A3.39,3.39,0,0,0,910.42,662.46Z" transform="translate(-848.47 -216.12)"/><path class="cls-5" d="M913.17,649.14l13.3,2.71a3.45,3.45,0,0,0,4-2.69,3.39,3.39,0,0,0-2.62-4l-13.3-2.71a3.45,3.45,0,0,0-4,2.69A3.41,3.41,0,0,0,913.17,649.14Z" transform="translate(-848.47 -216.12)"/><path class="cls-5" d="M904.91,689.09l13.3,2.71a3.44,3.44,0,0,0,4-2.68,3.39,3.39,0,0,0-2.62-4l-13.3-2.71a3.44,3.44,0,0,0-4,2.68A3.4,3.4,0,0,0,904.91,689.09Z" transform="translate(-848.47 -216.12)"/><path class="cls-5" d="M870.6,720.38a3.42,3.42,0,0,0,4-2.67,3.37,3.37,0,0,0-2.61-4l-3.32-.68a16.89,16.89,0,0,1-13.06-20.11l7-33.48,6.63,1.35-5.63,26.78a16.89,16.89,0,0,0,13.07,20.11l33.17,6.75A17.18,17.18,0,0,0,930,701l3.52-16.75a3.38,3.38,0,0,0-2.61-4,3.44,3.44,0,0,0-4,2.68l-3.52,16.74a10.31,10.31,0,0,1-12.07,8l1.41-6.7a3.38,3.38,0,0,0-2.61-4,3.44,3.44,0,0,0-4,2.67l-1.4,6.7L898.05,705l1.41-6.69a3.39,3.39,0,0,0-2.61-4,3.44,3.44,0,0,0-4,2.68l-1.4,6.69-6.64-1.34,1.41-6.7a3.37,3.37,0,0,0-2.62-4,3.43,3.43,0,0,0-4,2.67l-1.41,6.7a10.15,10.15,0,0,1-7.84-12.07l6.34-30.13a3.39,3.39,0,0,0-2.61-4l-16.59-3.37a3.44,3.44,0,0,0-4,2.68,3.37,3.37,0,0,0,2.61,4l-7,33.48a23.65,23.65,0,0,0,18.3,28.16Z" transform="translate(-848.47 -216.12)"/><path class="cls-5" d="M950.23,670.39,937,667.7,942.62,641a16.85,16.85,0,0,0-13-20l-33.06-6.72a17.11,17.11,0,0,0-20,13.33L873,644.24a3.36,3.36,0,0,0,2.6,4,3.41,3.41,0,0,0,4-2.66l3.51-16.7a10.26,10.26,0,0,1,12-8l-1.4,6.67a3.36,3.36,0,0,0,2.6,4,3.42,3.42,0,0,0,4-2.66l1.41-6.68,6.61,1.34L907,630.26a3.37,3.37,0,0,0,2.61,4,3.43,3.43,0,0,0,4-2.66l1.4-6.68,6.61,1.34-1.4,6.68a3.37,3.37,0,0,0,2.6,4,3.42,3.42,0,0,0,4-2.66l1.4-6.68a10.11,10.11,0,0,1,7.82,12l-6.32,30.05a3.37,3.37,0,0,0,2.61,4l9.92,2-7,33.38a17.13,17.13,0,0,1-20,13.34l-29.75-6.05a3.42,3.42,0,0,0-4,2.66l-4.91,23.37-9.92-2a3.38,3.38,0,0,0-2.55.5l-2.34,1.56a20,20,0,0,0-8.54,12.61,3.36,3.36,0,0,0,2.61,4l52.89,10.76a3.42,3.42,0,0,0,4-2.67,19.72,19.72,0,0,0-2.75-14.9l-1.53-2.35a3.33,3.33,0,0,0-4.67-1,3.44,3.44,0,0,0-1,4.72l1.53,2.35a12.94,12.94,0,0,1,2.08,6.36l-45.42-9.23a13.2,13.2,0,0,1,4.47-5l1.17-.78,25.08,5.1a3.42,3.42,0,0,0,4-2.66l4.91-23.38,13.23,2.69a24,24,0,0,0,28-18.66l7-33.39a3.41,3.41,0,0,0,4-2.67A3.36,3.36,0,0,0,950.23,670.39Zm-60.52,74.73-6.61-1.34,4.21-20,6.61,1.34Z" transform="translate(-848.47 -216.12)"/></g><path class="cls-5" d="M1302.84,670.23l3.21,1.47a.89.89,0,0,0,.76-1.62l-3.22-1.48a.9.9,0,0,0-.75,1.63Z" transform="translate(-848.47 -216.12)"/><path class="cls-5" d="M1304.33,667l3.21,1.47a.89.89,0,0,0,1.18-.44.88.88,0,0,0-.43-1.18l-3.21-1.48a.9.9,0,0,0-1.18.45A.88.88,0,0,0,1304.33,667Z" transform="translate(-848.47 -216.12)"/><path class="cls-5" d="M1305.81,663.79l3.22,1.48a.9.9,0,0,0,.75-1.63l-3.21-1.48a.89.89,0,0,0-1.18.45A.88.88,0,0,0,1305.81,663.79Z" transform="translate(-848.47 -216.12)"/><path class="cls-5" d="M1301.36,673.44l3.21,1.48a.89.89,0,0,0,.75-1.62l-3.21-1.48a.9.9,0,0,0-1.18.44A.88.88,0,0,0,1301.36,673.44Z" transform="translate(-848.47 -216.12)"/><path class="cls-5" d="M1309.28,673.2l3.21,1.48a.9.9,0,0,0,1.18-.45.89.89,0,0,0-.42-1.18l-3.22-1.47a.89.89,0,0,0-1.18.44A.9.9,0,0,0,1309.28,673.2Z" transform="translate(-848.47 -216.12)"/><path class="cls-5" d="M1310.77,670l3.21,1.48a.9.9,0,0,0,.75-1.63l-3.21-1.47a.89.89,0,0,0-1.18.44A.88.88,0,0,0,1310.77,670Z" transform="translate(-848.47 -216.12)"/><path class="cls-5" d="M1312.25,666.76l3.22,1.48a.9.9,0,0,0,.75-1.63l-3.22-1.47a.89.89,0,0,0-.75,1.62Z" transform="translate(-848.47 -216.12)"/><path class="cls-5" d="M1307.79,676.42l3.22,1.47a.89.89,0,0,0,1.18-.44.9.9,0,0,0-.43-1.18l-3.21-1.48a.9.9,0,0,0-.76,1.63Z" transform="translate(-848.47 -216.12)"/><path class="cls-5" d="M1297.24,682.34a.9.9,0,0,0,1.18-.44.88.88,0,0,0-.43-1.18l-.8-.37a4.41,4.41,0,0,1-2.13-5.88l3.76-8.1,1.6.74-3,6.47a4.41,4.41,0,0,0,2.13,5.89l8,3.68a4.46,4.46,0,0,0,5.89-2.2l1.88-4.05a.88.88,0,0,0-.43-1.17.89.89,0,0,0-1.18.44l-1.87,4a2.67,2.67,0,0,1-3.53,1.32l.75-1.61a.89.89,0,1,0-1.61-.74l-.75,1.62-1.6-.74.75-1.62a.88.88,0,1,0-1.6-.73l-.75,1.62-1.61-.74.75-1.62a.88.88,0,0,0-.42-1.18.9.9,0,0,0-1.18.44l-.75,1.62a2.65,2.65,0,0,1-1.28-3.53l3.38-7.28a.88.88,0,0,0-.43-1.18l-4-1.84a.89.89,0,0,0-.75,1.62l-3.75,8.09a6.19,6.19,0,0,0,3,8.24Z" transform="translate(-848.47 -216.12)"/><path class="cls-5" d="M1320.39,674.36l-3.2-1.47,3-6.46a4.4,4.4,0,0,0-2.13-5.87l-8-3.68a4.45,4.45,0,0,0-5.87,2.2l-1.87,4a.87.87,0,0,0,.42,1.17.89.89,0,0,0,1.18-.44l1.87-4a2.66,2.66,0,0,1,3.52-1.32l-.75,1.61a.88.88,0,0,0,.43,1.18.89.89,0,0,0,1.17-.44l.75-1.62,1.6.74-.75,1.61a.88.88,0,0,0,.42,1.18.9.9,0,0,0,1.18-.44l.75-1.62,1.6.74-.75,1.61a.88.88,0,0,0,.42,1.18.9.9,0,0,0,1.18-.44l.74-1.62a2.65,2.65,0,0,1,1.28,3.53l-3.37,7.26a.87.87,0,0,0,.43,1.17l2.39,1.11-3.74,8.07a4.46,4.46,0,0,1-5.87,2.2l-7.2-3.31a.89.89,0,0,0-1.17.44l-2.62,5.65-2.4-1.1a.85.85,0,0,0-.68,0l-.68.25a5.21,5.21,0,0,0-2.91,2.7.88.88,0,0,0,.42,1.18l12.8,5.87a.88.88,0,0,0,1.17-.44,5.16,5.16,0,0,0,.18-4l-.25-.69a.87.87,0,0,0-1.13-.52.9.9,0,0,0-.53,1.14l.25.69a3.45,3.45,0,0,1,.15,1.74l-11-5a3.36,3.36,0,0,1,1.43-1l.34-.12,6.07,2.78a.88.88,0,0,0,1.17-.44l2.62-5.65,3.2,1.47a6.23,6.23,0,0,0,8.22-3.08l3.74-8.07a.9.9,0,0,0,1.18-.44A.88.88,0,0,0,1320.39,674.36Zm-19.75,15.4L1299,689l2.24-4.85,1.6.74Z" transform="translate(-848.47 -216.12)"/><path class="cls-5" d="M1182.52,365.81l1.88-.31a.48.48,0,0,0,.39-.55.49.49,0,0,0-.55-.4l-1.88.31a.47.47,0,0,0-.39.55A.48.48,0,0,0,1182.52,365.81Z" transform="translate(-848.47 -216.12)"/><path class="cls-5" d="M1182.2,363.92l1.88-.3a.48.48,0,0,0-.16-.95l-1.88.3a.49.49,0,0,0-.39.56A.47.47,0,0,0,1182.2,363.92Z" transform="translate(-848.47 -216.12)"/><path class="cls-5" d="M1181.89,362l1.88-.31a.48.48,0,0,0,.39-.55.49.49,0,0,0-.55-.4l-1.88.31a.48.48,0,0,0,.16,1Z" transform="translate(-848.47 -216.12)"/><path class="cls-5" d="M1182.83,367.69l1.88-.31a.48.48,0,0,0,.39-.55.49.49,0,0,0-.55-.4l-1.88.31a.47.47,0,0,0-.39.55A.48.48,0,0,0,1182.83,367.69Z" transform="translate(-848.47 -216.12)"/><path class="cls-5" d="M1186.28,365.18l1.88-.31a.47.47,0,0,0,.39-.55.48.48,0,0,0-.55-.4l-1.88.31a.48.48,0,0,0-.39.55A.48.48,0,0,0,1186.28,365.18Z" transform="translate(-848.47 -216.12)"/><path class="cls-5" d="M1186,363.3l1.88-.31a.48.48,0,0,0,.39-.55.49.49,0,0,0-.55-.4l-1.88.31a.47.47,0,0,0-.39.55A.48.48,0,0,0,1186,363.3Z" transform="translate(-848.47 -216.12)"/><path class="cls-5" d="M1185.66,361.42l1.88-.31a.48.48,0,0,0-.16-.95l-1.89.3a.49.49,0,0,0,.17,1Z" transform="translate(-848.47 -216.12)"/><path class="cls-5" d="M1186.6,367.06l1.88-.3a.48.48,0,0,0-.16-.95l-1.88.3a.48.48,0,0,0-.39.56A.47.47,0,0,0,1186.6,367.06Z" transform="translate(-848.47 -216.12)"/><path class="cls-5" d="M1183.71,372.88a.46.46,0,0,0,.39-.54.48.48,0,0,0-.55-.4l-.47.08a2.41,2.41,0,0,1-2.74-2l-.81-4.73.94-.15.64,3.78a2.41,2.41,0,0,0,2.75,2l4.69-.77a2.37,2.37,0,0,0,2-2.75l-.4-2.36a.48.48,0,0,0-.55-.4.47.47,0,0,0-.39.55l.4,2.36a1.42,1.42,0,0,1-1.17,1.65l-.16-.94a.48.48,0,0,0-.55-.4.48.48,0,0,0-.39.55l.16.95-.93.15-.17-.95a.47.47,0,1,0-.93.16l.16.94-.94.16-.16-.95a.49.49,0,0,0-.55-.4.47.47,0,0,0-.39.55l.16,1a1.44,1.44,0,0,1-1.65-1.19l-.72-4.26a.49.49,0,0,0-.55-.4l-2.35.39a.48.48,0,0,0,.16.94l.81,4.73a3.36,3.36,0,0,0,3.84,2.78Z" transform="translate(-848.47 -216.12)"/><path class="cls-5" d="M1191.56,362.37l-1.87.3-.64-3.77a2.41,2.41,0,0,0-2.74-2l-4.67.76a2.38,2.38,0,0,0-1.94,2.75l.4,2.36a.48.48,0,0,0,.94-.16l-.41-2.36a1.41,1.41,0,0,1,1.17-1.64l.16.94a.48.48,0,0,0,.54.4.47.47,0,0,0,.39-.55l-.16-.94.94-.16.16.95a.48.48,0,0,0,.55.39.47.47,0,0,0,.38-.55l-.16-.94.94-.15.16.94a.48.48,0,0,0,.55.4.47.47,0,0,0,.38-.55l-.16-.94a1.44,1.44,0,0,1,1.65,1.18l.72,4.25a.47.47,0,0,0,.55.39l1.4-.22.8,4.72a2.37,2.37,0,0,1-1.94,2.74l-4.21.68a.48.48,0,0,0-.39.55l.56,3.31-1.4.22a.48.48,0,0,0-.31.2l-.22.32a2.72,2.72,0,0,0-.47,2.07.48.48,0,0,0,.55.4l7.48-1.22a.48.48,0,0,0,.39-.55,2.85,2.85,0,0,0-1.13-1.82l-.32-.23a.48.48,0,0,0-.66.11.49.49,0,0,0,.11.67l.32.23a1.85,1.85,0,0,1,.6.73l-6.42,1a1.74,1.74,0,0,1,.32-.88l.12-.16,3.54-.58a.47.47,0,0,0,.39-.55l-.56-3.3,1.87-.31a3.32,3.32,0,0,0,2.72-3.84l-.81-4.72a.46.46,0,0,0,.39-.54A.48.48,0,0,0,1191.56,362.37Zm-4.07,12.79-.94.15-.48-2.83.94-.15Z" transform="translate(-848.47 -216.12)"/><g class="cls-9"><path class="cls-5" d="M1134.06,269.19a3.48,3.48,0,0,0-.85.11l-28.14,7a3.78,3.78,0,0,0-2.87,3.68v37.18a5,5,0,1,1-5-5.05,4.87,4.87,0,0,1,1,.1,1.26,1.26,0,1,0,.5-2.48,7.58,7.58,0,1,0,6.07,7.43V280a1.26,1.26,0,0,1,1-1.23l28.13-7a1,1,0,0,1,1.23.95v5.63l-26.86,7.33a1.26,1.26,0,1,0,.66,2.43l26.2-7.14v28.66a5,5,0,1,1-4-4.95,1.26,1.26,0,0,0,.5-2.48A7.76,7.76,0,0,0,1130,302a7.58,7.58,0,1,0,7.58,7.58V272.7A3.51,3.51,0,0,0,1134.06,269.19Z" transform="translate(-848.47 -216.12)"/></g><path class="cls-5" d="M1321.65,380.83a1.17,1.17,0,0,0,1.4-.86,1.14,1.14,0,0,0-.84-1.4,1.16,1.16,0,0,0-1.4.86A1.15,1.15,0,0,0,1321.65,380.83Z" transform="translate(-848.47 -216.12)"/><path class="cls-5" d="M1360,390.13a1.18,1.18,0,0,0,1.4-.87,1.15,1.15,0,1,0-2.24-.53A1.15,1.15,0,0,0,1360,390.13Z" transform="translate(-848.47 -216.12)"/><path class="cls-5" d="M1349.33,399.48a1.18,1.18,0,0,0,1.4-.87,1.15,1.15,0,1,0-1.4.87Z" transform="translate(-848.47 -216.12)"/><path class="cls-5" d="M1326.8,394a1.17,1.17,0,1,0-.84-1.4A1.15,1.15,0,0,0,1326.8,394Z" transform="translate(-848.47 -216.12)"/><path class="cls-5" d="M1315.63,405.61a1.17,1.17,0,0,0,1.4-.86,1.14,1.14,0,0,0-.84-1.4,1.16,1.16,0,0,0-.56,2.26Z" transform="translate(-848.47 -216.12)"/><path class="cls-5" d="M1353.93,414.91a1.17,1.17,0,0,0,1.4-.87,1.15,1.15,0,0,0-.84-1.4,1.17,1.17,0,0,0-.56,2.27Z" transform="translate(-848.47 -216.12)"/><path class="cls-5" d="M1325.42,399.74l22.49,5.39a7,7,0,0,0,8.42-5.21,7,7,0,0,0-5.07-8.44l-22.48-5.39a7,7,0,0,0-8.42,5.21A6.94,6.94,0,0,0,1325.42,399.74Zm1.67-11.48a1.12,1.12,0,0,0,.85,1.24,1.17,1.17,0,0,0,1.41-.86l16.34,3.91a7.1,7.1,0,0,0-3,7,1.16,1.16,0,0,0,1.34.95,1.18,1.18,0,0,0,.94-1.36,5,5,0,0,1,0-.77,1.17,1.17,0,0,0,1.25-.87,1.13,1.13,0,0,0-.7-1.34,4.7,4.7,0,0,1,4.06-2.52,1.13,1.13,0,0,0,.85,1.25,1.16,1.16,0,0,0,1.34-.72,4.6,4.6,0,0,1,2.44,4.07,1.15,1.15,0,0,0-1.24.87,1.13,1.13,0,0,0,.7,1.34,4.68,4.68,0,0,1-4.06,2.51,1.15,1.15,0,0,0-.86-1.25,1.18,1.18,0,0,0-1.4.87L1331,398.67a7.11,7.11,0,0,0,3-7,1.16,1.16,0,0,0-1.34-.94,1.19,1.19,0,0,0-.95,1.36,4,4,0,0,1,0,.77,1.18,1.18,0,0,0-1.25.87,1.14,1.14,0,0,0,.71,1.34,4.68,4.68,0,0,1-4.06,2.51,1.13,1.13,0,0,0-2.19-.52,4.62,4.62,0,0,1-2.45-4.07,1.16,1.16,0,0,0,1.25-.87,1.14,1.14,0,0,0-.7-1.34A4.67,4.67,0,0,1,1327.09,388.26Z" transform="translate(-848.47 -216.12)"/><path class="cls-5" d="M1363.86,383.7l-42.65-10.2a3.51,3.51,0,0,0-4.2,2.6l-7.26,29.46a3.47,3.47,0,0,0,2.53,4.21l30.3,7.25a1.17,1.17,0,0,0,1.4-.87,1.14,1.14,0,0,0-.84-1.4l-30.3-7.25a1.14,1.14,0,0,1-.84-1.4l7.26-29.46a1.17,1.17,0,0,1,1.4-.87L1363.3,386a1.15,1.15,0,0,1,.84,1.4l-7.26,29.47a1.17,1.17,0,0,1-1.4.86l-7-1.68-.38-4.83a3.44,3.44,0,0,0-2.62-3.09l-19.21-4.6a3.5,3.5,0,0,0-3.77,1.57l-1.06,1.7a1.15,1.15,0,1,0,1.95,1.23l1.07-1.71a1.16,1.16,0,0,1,1.25-.52l19.21,4.6a1.13,1.13,0,0,1,.88,1l.43,5.66a1.16,1.16,0,0,0,.88,1l7.85,1.88a3.52,3.52,0,0,0,4.21-2.6l7.26-29.46A3.47,3.47,0,0,0,1363.86,383.7Z" transform="translate(-848.47 -216.12)"/><path class="cls-5" d="M1349.8,387.66a1.18,1.18,0,0,0,1.41-.87,1.16,1.16,0,0,0-.85-1.42l-18-4.34a1.18,1.18,0,0,0-.56,2.29Z" transform="translate(-848.47 -216.12)"/><path class="cls-5" d="M1335.81,396.21l4.5,1.08a1.18,1.18,0,0,0,1.41-.87,1.17,1.17,0,0,0-.85-1.41l-4.5-1.08a1.17,1.17,0,0,0-.56,2.28Z" transform="translate(-848.47 -216.12)"/><g class="cls-10"><path class="cls-5" d="M1243.85,465.13a.67.67,0,0,0,.66-.66.66.66,0,0,0-1.32,0A.67.67,0,0,0,1243.85,465.13Z" transform="translate(-848.47 -216.12)"/><path class="cls-5" d="M1266.16,465.13a.66.66,0,0,0,.66-.66.66.66,0,1,0-.66.66Z" transform="translate(-848.47 -216.12)"/><path class="cls-5" d="M1261.57,471.69a.66.66,0,1,0-.66-.66A.66.66,0,0,0,1261.57,471.69Z" transform="translate(-848.47 -216.12)"/><path class="cls-5" d="M1248.45,471.69a.66.66,0,1,0-.66-.66A.65.65,0,0,0,1248.45,471.69Z" transform="translate(-848.47 -216.12)"/><path class="cls-5" d="M1243.85,479.57a.66.66,0,1,0-.66-.66A.67.67,0,0,0,1243.85,479.57Z" transform="translate(-848.47 -216.12)"/><path class="cls-5" d="M1266.16,479.57a.66.66,0,1,0-.65-.66A.66.66,0,0,0,1266.16,479.57Z" transform="translate(-848.47 -216.12)"/><path class="cls-5" d="M1248.45,475h13.12a3.94,3.94,0,1,0,0-7.87h-13.12a3.94,3.94,0,1,0,0,7.87Zm-.64-6.47a.64.64,0,0,0,.64.57.66.66,0,0,0,.65-.66h9.54a3.94,3.94,0,0,0-1,2.62,3.89,3.89,0,0,0,.33,1.58.66.66,0,1,0,1.2-.53c-.05-.13-.09-.27-.13-.41a.64.64,0,0,0,0-1.27,2.62,2.62,0,0,1,1.9-1.9.64.64,0,0,0,1.28,0,2.62,2.62,0,0,1,1.9,1.9.64.64,0,0,0,0,1.27,2.62,2.62,0,0,1-1.9,1.9.66.66,0,0,0-.64-.57.67.67,0,0,0-.66.66h-9.54a3.92,3.92,0,0,0,.68-4.2.65.65,0,0,0-.86-.34.66.66,0,0,0-.34.86,2.25,2.25,0,0,1,.13.42.64.64,0,0,0,0,1.27,2.59,2.59,0,0,1-1.9,1.9.64.64,0,0,0-1.27,0,2.59,2.59,0,0,1-1.9-1.9.64.64,0,0,0,0-1.27A2.59,2.59,0,0,1,1247.81,468.5Z" transform="translate(-848.47 -216.12)"/><path class="cls-5" d="M1267.48,461.19h-24.94a2,2,0,0,0-2,2v17.06a2,2,0,0,0,2,2h17.72a.66.66,0,0,0,0-1.31h-17.72a.67.67,0,0,1-.66-.66V463.16a.67.67,0,0,1,.66-.66h24.94a.66.66,0,0,1,.65.66v17.06a.66.66,0,0,1-.65.66h-4.12l-.87-2.59a2,2,0,0,0-1.87-1.35h-11.23a2,2,0,0,0-1.87,1.35l-.35,1.07a.65.65,0,1,0,1.24.41l.36-1.07a.65.65,0,0,1,.62-.45h11.23a.66.66,0,0,1,.63.45l1,3a.65.65,0,0,0,.62.45h4.6a2,2,0,0,0,2-2V463.16A2,2,0,0,0,1267.48,461.19Z" transform="translate(-848.47 -216.12)"/><path class="cls-5" d="M1260.26,465.13a.66.66,0,0,0,.65-.66.65.65,0,0,0-.65-.65h-10.5a.65.65,0,0,0-.66.65.66.66,0,0,0,.66.66Z" transform="translate(-848.47 -216.12)"/><path class="cls-5" d="M1253.7,471.69h2.62a.66.66,0,1,0,0-1.31h-2.62a.66.66,0,1,0,0,1.31Z" transform="translate(-848.47 -216.12)"/></g><g class="cls-11"><path class="cls-5" d="M1627.55,275.16c-36-8.53-72.49,14.09-81.37,50.42s13.16,72.84,49.15,81.37,72.49-14.08,81.37-50.42S1663.53,283.7,1627.55,275.16Zm-29.92,122.38c-30.84-7.32-49.74-38.6-42.13-69.75s38.9-50.53,69.74-43.21,49.75,38.6,42.14,69.74S1628.48,404.85,1597.63,397.54Z" transform="translate(-848.47 -216.12)"/><path class="cls-5" d="M1523.1,399.11a4.87,4.87,0,0,0,5.82-3.6,4.78,4.78,0,0,0-3.51-5.81,4.87,4.87,0,0,0-5.82,3.6A4.78,4.78,0,0,0,1523.1,399.11Z" transform="translate(-848.47 -216.12)"/><path class="cls-5" d="M1556.94,258.58a4.86,4.86,0,0,0,5.81-3.6,4.77,4.77,0,0,0-3.51-5.81,4.86,4.86,0,0,0-5.81,3.6A4.77,4.77,0,0,0,1556.94,258.58Z" transform="translate(-848.47 -216.12)"/><path class="cls-5" d="M1616,322.23a19.45,19.45,0,0,0-23.25,14.41,19.12,19.12,0,0,0,14,23.24,19.44,19.44,0,0,0,23.24-14.4A19.13,19.13,0,0,0,1616,322.23Zm-6.9,28.24a9.57,9.57,0,0,1-7-11.62,9.75,9.75,0,0,1,11.63-7.21,9.57,9.57,0,0,1,7,11.63A9.72,9.72,0,0,1,1609.14,350.47Z" transform="translate(-848.47 -216.12)"/><path class="cls-5" d="M1725.32,258.51l-177.14-42a14.6,14.6,0,0,0-17.44,10.8L1487,406.17a14.35,14.35,0,0,0,10.53,17.43l177.15,42a14.59,14.59,0,0,0,17.43-10.8L1735.85,276A14.35,14.35,0,0,0,1725.32,258.51Zm-42.51,194.08a4.88,4.88,0,0,1-5.81,3.61l-177.14-42a4.78,4.78,0,0,1-3.51-5.81l43.72-178.86a4.86,4.86,0,0,1,5.81-3.6l177.14,42a4.79,4.79,0,0,1,3.51,5.81Z" transform="translate(-848.47 -216.12)"/><path class="cls-5" d="M1709.12,302.16a18.63,18.63,0,0,0,8.34-11.5,18.23,18.23,0,0,0-27.35-20l-12.74,7.89a4.73,4.73,0,0,1-5.8-.63,84.74,84.74,0,0,0-39.42-21.61,85.69,85.69,0,0,0-45.09,1.57,4.74,4.74,0,0,1-5.46-2l-7.69-12.74a18,18,0,0,0-11.33-8.27,18.63,18.63,0,0,0-22.26,13.79,18.43,18.43,0,0,0,2.12,14l7.69,12.74a4.84,4.84,0,0,1-.69,5.85,88.1,88.1,0,0,0-21.91,39.94,87.2,87.2,0,0,0,1,45.38,4.89,4.89,0,0,1-2.08,5.53L1513.76,380a18.68,18.68,0,0,0-8.35,11.5,18.25,18.25,0,0,0,27.36,20l12.74-7.9a4.74,4.74,0,0,1,5.8.64,85,85,0,0,0,84.5,20,4.73,4.73,0,0,1,5.46,2L1649,439a18,18,0,0,0,11.33,8.28,18.62,18.62,0,0,0,22.25-13.79,18.38,18.38,0,0,0-2.11-14l-7.7-12.74a4.85,4.85,0,0,1,.7-5.85A88.2,88.2,0,0,0,1695.35,361a87.2,87.2,0,0,0-1.06-45.38,4.87,4.87,0,0,1,2.09-5.52Zm-24,16.27a77.34,77.34,0,0,1,.94,40.32,78.21,78.21,0,0,1-19.47,35.48,14.62,14.62,0,0,0-2,17.61l7.7,12.74a8.91,8.91,0,0,1-9.62,13.26,8.57,8.57,0,0,1-5.41-3.95l-7.7-12.74a14.14,14.14,0,0,0-8.85-6.45,14.32,14.32,0,0,0-7.56.26C1607,423,1577.48,416,1558,397.17a14.26,14.26,0,0,0-17.47-1.86l-12.74,7.9a8.71,8.71,0,0,1-13.06-9.54,8.87,8.87,0,0,1,4-5.49l12.74-7.9a14.67,14.67,0,0,0,6.33-16.59,77.82,77.82,0,0,1,18.53-75.8,14.62,14.62,0,0,0,2-17.62l-7.69-12.73a8.73,8.73,0,0,1-1-6.68,8.9,8.9,0,0,1,10.63-6.59,8.6,8.6,0,0,1,5.41,4l7.69,12.74a14.21,14.21,0,0,0,16.41,6.18c26.07-8.07,55.6-1.07,75.07,17.8a14.26,14.26,0,0,0,17.47,1.86l12.74-7.9a8.71,8.71,0,0,1,13.07,9.54,8.94,8.94,0,0,1-4,5.49l-12.74,7.89A14.7,14.7,0,0,0,1685.08,318.43Z" transform="translate(-848.47 -216.12)"/></g><g class="cls-12"><path class="cls-5" d="M991.76,449.1a12.12,12.12,0,1,0,12.85,11.32A12.05,12.05,0,0,0,991.76,449.1Zm1.51,22.45a10.38,10.38,0,1,1,9.62-11A10.32,10.32,0,0,1,993.27,471.55Z" transform="translate(-848.47 -216.12)"/><path class="cls-5" d="M1006.4,474.13a.86.86,0,0,0,.81-.92.87.87,0,0,0-.92-.8.85.85,0,0,0-.8.91A.86.86,0,0,0,1006.4,474.13Z" transform="translate(-848.47 -216.12)"/><path class="cls-5" d="M1004.71,448.28a.87.87,0,1,0-.92-.81A.86.86,0,0,0,1004.71,448.28Z" transform="translate(-848.47 -216.12)"/><path class="cls-5" d="M980.55,475.83a.87.87,0,1,0-.92-.81A.87.87,0,0,0,980.55,475.83Z" transform="translate(-848.47 -216.12)"/><path class="cls-5" d="M978.86,450a.86.86,0,0,0,.8-.91.87.87,0,0,0-.92-.81.85.85,0,0,0-.8.92A.86.86,0,0,0,978.86,450Z" transform="translate(-848.47 -216.12)"/><path class="cls-5" d="M992.34,457.74A3.46,3.46,0,1,0,996,461,3.47,3.47,0,0,0,992.34,457.74Zm.35,5.18a1.73,1.73,0,1,1,1.6-1.84A1.72,1.72,0,0,1,992.69,462.92Z" transform="translate(-848.47 -216.12)"/><path class="cls-5" d="M1007.63,441.15,975,443.23a2.6,2.6,0,0,0-2.41,2.76l2.22,32.81a2.61,2.61,0,0,0,2.75,2.43l32.68-2.08a2.58,2.58,0,0,0,2.41-2.76l-2.22-32.81A2.6,2.6,0,0,0,1007.63,441.15Zm3.25,35.35a.86.86,0,0,1-.8.92L977.4,479.5a.86.86,0,0,1-.92-.81l-2.22-32.81a.86.86,0,0,1,.81-.92l32.67-2.08a.86.86,0,0,1,.92.81Z" transform="translate(-848.47 -216.12)"/><path class="cls-5" d="M1007.22,449.45a3.3,3.3,0,0,0,.81-2.4,3.34,3.34,0,0,0-3.52-3.1,3.25,3.25,0,0,0-2.26,1.12l-1.76,2a.87.87,0,0,1-1,.2,15.39,15.39,0,0,0-15.59,1,.87.87,0,0,1-1-.06l-2-1.78a3.29,3.29,0,0,0-5.46,2.7,3.35,3.35,0,0,0,1.12,2.28l2,1.77a.86.86,0,0,1,.2,1,15.56,15.56,0,0,0,1.06,15.66.86.86,0,0,1-.06,1.05l-1.76,2a3.32,3.32,0,1,0,5,4.38l1.75-2a.87.87,0,0,1,1-.2,15.39,15.39,0,0,0,15.59-1,.87.87,0,0,1,1.05.06l2,1.78a3.35,3.35,0,0,0,2.4.82,3.31,3.31,0,0,0,1.94-5.8l-2-1.77a.87.87,0,0,1-.2-1,15.56,15.56,0,0,0-1.06-15.66.87.87,0,0,1,.06-1.05Zm-3.24,4a13.84,13.84,0,0,1,.94,13.91,2.59,2.59,0,0,0,.61,3.11l2,1.77a1.58,1.58,0,0,1-.93,2.77,1.53,1.53,0,0,1-1.14-.39l-2-1.78a2.54,2.54,0,0,0-1.87-.63,2.46,2.46,0,0,0-1.28.44,13.89,13.89,0,0,1-13.85.88,2.58,2.58,0,0,0-3.1.59l-1.75,2a1.56,1.56,0,0,1-1.08.53,1.59,1.59,0,0,1-1.68-1.48,1.53,1.53,0,0,1,.38-1.14l1.76-2a2.58,2.58,0,0,0,.18-3.16,13.84,13.84,0,0,1-.94-13.91,2.6,2.6,0,0,0-.6-3.11l-2-1.77a1.62,1.62,0,0,1-.53-1.09,1.57,1.57,0,0,1,2.61-1.29l2,1.78a2.59,2.59,0,0,0,3.15.2,13.9,13.9,0,0,1,13.85-.89,2.56,2.56,0,0,0,3.1-.59l1.76-2a1.58,1.58,0,0,1,2.76,1,1.53,1.53,0,0,1-.39,1.14l-1.76,2A2.6,2.6,0,0,0,1004,453.48Z" transform="translate(-848.47 -216.12)"/></g><circle class="cls-5" cx="362.6" cy="77.57" r="3.5"/><circle class="cls-13" cx="592.6" cy="289.57" r="17.5"/><circle class="cls-5" cx="232.6" cy="315.57" r="3.5"/><circle class="cls-14" cx="134.6" cy="127.57" r="2.5"/><circle class="cls-5" cx="574.6" cy="390.57" r="3.5"/><circle class="cls-15" cx="445.6" cy="362.57" r="3.5"/><circle class="cls-15" cx="537.6" cy="175.57" r="3.5"/><circle class="cls-16" cx="275.6" cy="552.57" r="12.5"/><circle class="cls-17" cx="275.6" cy="552.57" r="3.75"/><circle class="cls-17" cx="275.6" cy="552.57" r="2.5"/><circle class="cls-16" cx="486.1" cy="297.07" r="9"/><circle class="cls-17" cx="486.1" cy="297.07" r="2.7"/><circle class="cls-17" cx="486.1" cy="297.07" r="1.8"/><circle class="cls-16" cx="22.1" cy="62.07" r="9"/><circle class="cls-17" cx="22.1" cy="62.07" r="2.7"/><circle class="cls-17" cx="22.1" cy="62.07" r="1.8"/></svg>