<svg width="106" height="27" viewBox="0 0 106 27" fill="none" xmlns="http://www.w3.org/2000/svg">
<g clip-path="url(#clip0)">
<path d="M44.5123 25.3946V8.4195H44.3866L37.5966 25.3946H34.956L28.166 8.4195H28.0402V25.3946H24.8967V2.38391H28.9204L36.2134 20.7422H36.3391L43.6321 2.38391H47.7816V25.3946H44.5123ZM65.5111 25.3946H62.2419V22.5025H62.1161C61.2359 24.5144 59.4756 25.6461 56.9607 25.6461C53.3142 25.6461 51.1766 23.257 51.1766 19.359V8.54524H54.5716V18.7303C54.5716 21.2451 55.8291 22.6283 58.0924 22.6283C60.6072 22.6283 61.9904 20.8679 61.9904 18.2273V8.54524H65.3854L65.5111 25.3946ZM74.816 8.29376C78.714 8.29376 81.1031 10.4314 81.2288 13.5749H78.0853C77.8338 11.9403 76.7021 10.9343 74.816 10.9343C72.9299 10.9343 71.6725 11.8145 71.6725 13.1977C71.6725 14.2036 72.4269 14.9581 74.1873 15.3353L76.8279 15.964C80.2229 16.7184 81.4803 18.1016 81.4803 20.4907C81.4803 23.5085 78.714 25.6461 74.816 25.6461C70.6665 25.6461 68.1517 23.6342 67.9002 20.3649H71.2952C71.5467 22.1253 72.8041 23.0055 74.816 23.0055C76.8279 23.0055 78.0853 22.1253 78.0853 20.7422C78.0853 19.6105 77.4566 18.9818 75.6962 18.6046L73.0556 17.9758C69.9121 17.2214 68.4032 15.7125 68.4032 13.1977C68.4032 10.3056 70.918 8.29376 74.816 8.29376ZM83.9951 4.14429C83.9951 3.01262 84.8753 2.13243 86.007 2.13243C87.1387 2.13243 88.0189 3.01262 88.0189 4.14429C88.0189 5.27597 87.1387 6.15616 86.007 6.15616C84.8753 6.15616 83.9951 5.27597 83.9951 4.14429ZM84.2466 8.54524H87.6416V25.3946H84.2466V8.54524ZM101.976 14.3293C101.599 12.569 100.342 11.0601 98.0782 11.0601C95.4376 11.0601 93.6772 13.3234 93.6772 16.8442C93.6772 20.4907 95.4376 22.6283 98.0782 22.6283C100.216 22.6283 101.473 21.4966 101.976 19.4847H105.245C104.868 23.0055 102.102 25.5203 98.0782 25.5203C93.3 25.5203 90.2822 22.2511 90.2822 16.8442C90.2822 11.563 93.3 8.16802 98.0782 8.16802C102.353 8.16802 104.868 10.9343 105.245 14.2036L101.976 14.3293ZM14.4601 4.64726C13.58 5.65319 12.1968 6.53338 10.8136 6.40764C10.5622 4.89874 11.3166 3.38985 12.0711 2.50966C12.9512 1.37798 14.4601 0.623535 15.7176 0.623535C15.8433 2.00669 15.3403 3.51559 14.4601 4.64726ZM15.7176 6.65912C16.472 6.65912 18.7353 6.9106 20.2442 9.17395C20.1185 9.29969 17.6037 10.8086 17.6037 13.9521C17.6037 17.7244 20.873 18.9818 20.873 18.9818C20.873 19.1075 20.37 20.7422 19.2383 22.5025C18.2324 24.0114 17.1007 25.5203 15.4661 25.5203C13.8314 25.5203 13.3285 24.5144 11.4424 24.5144C9.55623 24.5144 8.92752 25.5203 7.41862 25.5203C5.78399 25.5203 4.52657 23.8857 3.52064 22.3768C1.38304 19.2333 -0.2516 13.5749 2.01175 9.80266C3.01768 7.91654 5.02954 6.65912 7.0414 6.65912C8.67604 6.65912 10.1849 7.79079 11.0651 7.79079C11.9453 7.79079 13.7057 6.53338 15.7176 6.65912Z" fill="#000114"/>
</g>
<defs>
<clipPath id="clip0">
<rect width="106" height="26.0285" fill="white" transform="translate(0 0.121094)"/>
</clipPath>
</defs>
</svg>
