<svg width="28" height="28" viewBox="0 0 28 28" fill="none" xmlns="http://www.w3.org/2000/svg">
<mask id="mask0" mask-type="alpha" maskUnits="userSpaceOnUse" x="2" y="1" width="24" height="26">
<path fill-rule="evenodd" clip-rule="evenodd" d="M5.8335 13.9998C5.18916 13.9998 4.66683 14.5222 4.66683 15.1665V23.3332C4.66683 23.9775 5.18916 24.4998 5.8335 24.4998H22.1668C22.8112 24.4998 23.3335 23.9775 23.3335 23.3332V15.1665C23.3335 14.5222 22.8112 13.9998 22.1668 13.9998H5.8335ZM2.3335 15.1665C2.3335 13.2335 3.9005 11.6665 5.8335 11.6665H22.1668C24.0998 11.6665 25.6668 13.2335 25.6668 15.1665V23.3332C25.6668 25.2662 24.0998 26.8332 22.1668 26.8332H5.8335C3.9005 26.8332 2.3335 25.2662 2.3335 23.3332V15.1665Z" fill="#061938"/>
<path fill-rule="evenodd" clip-rule="evenodd" d="M14.0005 3.49984C12.7628 3.49984 11.5758 3.9915 10.7007 4.86667C9.82549 5.74184 9.33382 6.92883 9.33382 8.1665V12.8332C9.33382 13.4775 8.81149 13.9998 8.16715 13.9998C7.52282 13.9998 7.00049 13.4775 7.00049 12.8332V8.1665C7.00049 6.30999 7.73799 4.52951 9.05074 3.21676C10.3635 1.904 12.144 1.1665 14.0005 1.1665C15.857 1.1665 17.6375 1.904 18.9502 3.21676C20.263 4.52951 21.0005 6.30999 21.0005 8.1665V12.8332C21.0005 13.4775 20.4782 13.9998 19.8338 13.9998C19.1895 13.9998 18.6672 13.4775 18.6672 12.8332V8.1665C18.6672 6.92883 18.1755 5.74184 17.3003 4.86667C16.4251 3.9915 15.2382 3.49984 14.0005 3.49984Z" fill="#061938"/>
</mask>
<g mask="url(#mask0)">
<rect width="28" height="28" fill="#010114" fill-opacity="0.42"/>
</g>
</svg>
