<svg width="28" height="28" viewBox="0 0 28 28" fill="none" xmlns="http://www.w3.org/2000/svg">
<mask id="mask0" mask-type="alpha" maskUnits="userSpaceOnUse" x="0" y="3" width="28" height="22">
<path fill-rule="evenodd" clip-rule="evenodd" d="M3.5 5.83333C2.85567 5.83333 2.33333 6.35567 2.33333 7V21C2.33333 21.6443 2.85567 22.1667 3.5 22.1667H24.5C25.1443 22.1667 25.6667 21.6443 25.6667 21V7C25.6667 6.35567 25.1443 5.83333 24.5 5.83333H3.5ZM0 7C0 5.067 1.567 3.5 3.5 3.5H24.5C26.433 3.5 28 5.067 28 7V21C28 22.933 26.433 24.5 24.5 24.5H3.5C1.567 24.5 0 22.933 0 21V7Z" fill="#061938"/>
<path fill-rule="evenodd" clip-rule="evenodd" d="M0 11.6667C0 11.0223 0.522334 10.5 1.16667 10.5H26.8333C27.4777 10.5 28 11.0223 28 11.6667C28 12.311 27.4777 12.8333 26.8333 12.8333H1.16667C0.522334 12.8333 0 12.311 0 11.6667Z" fill="#061938"/>
</mask>
<g mask="url(#mask0)">
<rect width="28" height="28" fill="#010114" fill-opacity="0.42"/>
</g>
</svg>
