<svg width="28" height="28" viewBox="0 0 28 28" fill="none" xmlns="http://www.w3.org/2000/svg">
<mask id="mask0" mask-type="alpha" maskUnits="userSpaceOnUse" x="3" y="2" width="22" height="24">
<path fill-rule="evenodd" clip-rule="evenodd" d="M5.20854 18.0418C6.30251 16.9478 7.78624 16.3333 9.33333 16.3333H18.6667C20.2138 16.3333 21.6975 16.9478 22.7915 18.0418C23.8854 19.1358 24.5 20.6195 24.5 22.1666V24.4999C24.5 25.1443 23.9777 25.6666 23.3333 25.6666C22.689 25.6666 22.1667 25.1443 22.1667 24.4999V22.1666C22.1667 21.2383 21.7979 20.3481 21.1415 19.6917C20.4852 19.0353 19.5949 18.6666 18.6667 18.6666H9.33333C8.40508 18.6666 7.51484 19.0353 6.85846 19.6917C6.20208 20.3481 5.83333 21.2383 5.83333 22.1666V24.4999C5.83333 25.1443 5.311 25.6666 4.66667 25.6666C4.02233 25.6666 3.5 25.1443 3.5 24.4999V22.1666C3.5 20.6195 4.11458 19.1358 5.20854 18.0418Z" fill="#061938"/>
<path fill-rule="evenodd" clip-rule="evenodd" d="M13.9998 4.66659C12.0668 4.66659 10.4998 6.23359 10.4998 8.16658C10.4998 10.0996 12.0668 11.6666 13.9998 11.6666C15.9328 11.6666 17.4998 10.0996 17.4998 8.16658C17.4998 6.23359 15.9328 4.66659 13.9998 4.66659ZM8.1665 8.16658C8.1665 4.94492 10.7782 2.33325 13.9998 2.33325C17.2215 2.33325 19.8332 4.94492 19.8332 8.16658C19.8332 11.3882 17.2215 13.9999 13.9998 13.9999C10.7782 13.9999 8.1665 11.3882 8.1665 8.16658Z" fill="#061938"/>
</mask>
<g mask="url(#mask0)">
<rect width="28" height="28" fill="#010114" fill-opacity="0.44"/>
</g>
</svg>
