<svg width="262" height="62" viewBox="0 0 262 62" fill="none" xmlns="http://www.w3.org/2000/svg">
<path d="M109.281 61.1436V19.4044H108.966L91.9913 61.1436H85.3899L68.4148 19.4044H68.1005V61.1436H60.2416V4.56385H70.3009L88.5334 49.7039H88.8478L107.08 4.56385H117.454V61.1436H109.281ZM161.778 61.1436H153.605V54.0324H153.29C151.09 58.9793 146.689 61.7619 140.402 61.7619C131.286 61.7619 125.942 55.8875 125.942 46.303V19.7136H134.429V44.7571C134.429 50.9407 137.573 54.3416 143.231 54.3416C149.518 54.3416 152.976 50.0131 152.976 43.5204V19.7136H161.463L161.778 61.1436ZM185.04 19.0953C194.785 19.0953 200.758 24.3513 201.072 32.0808H193.213C192.584 28.0614 189.755 25.588 185.04 25.588C180.325 25.588 177.181 27.7523 177.181 31.1532C177.181 33.6267 179.067 35.4817 183.468 36.4093L190.07 37.9552C198.557 39.8102 201.701 43.2112 201.701 49.0856C201.701 56.5059 194.785 61.7619 185.04 61.7619C174.666 61.7619 168.379 56.8151 167.751 48.7764H176.238C176.867 53.1049 180.01 55.2692 185.04 55.2692C190.07 55.2692 193.213 53.1049 193.213 49.7039C193.213 46.9213 191.641 45.3754 187.24 44.4479L180.639 42.902C172.78 41.0469 169.008 37.3368 169.008 31.1532C169.008 24.0421 175.295 19.0953 185.04 19.0953ZM207.988 8.89235C207.988 6.10975 210.188 3.9455 213.017 3.9455C215.847 3.9455 218.047 6.10975 218.047 8.89235C218.047 11.675 215.847 13.8392 213.017 13.8392C210.188 13.8392 207.988 11.675 207.988 8.89235ZM208.616 19.7136H217.104V61.1436H208.616V19.7136ZM252.94 33.9358C251.997 29.6073 248.854 25.8972 243.195 25.8972C236.594 25.8972 232.193 31.4624 232.193 40.1194C232.193 49.0856 236.594 54.3416 243.195 54.3416C248.539 54.3416 251.683 51.559 252.94 46.6122H261.113C260.17 55.2692 253.255 61.4527 243.195 61.4527C231.25 61.4527 223.705 53.4141 223.705 40.1194C223.705 27.1339 231.25 18.7861 243.195 18.7861C253.883 18.7861 260.17 25.588 261.113 33.6267L252.94 33.9358ZM34.1503 10.1291C31.9498 12.6025 28.4919 14.7668 25.034 14.4576C24.4053 10.7474 26.2915 7.03728 28.1776 4.87303C30.3781 2.09042 34.1503 0.235352 37.2938 0.235352C37.6082 3.63632 36.3508 7.34646 34.1503 10.1291ZM37.2938 15.0759C39.1799 15.0759 44.8383 15.6943 48.6106 21.2595C48.2962 21.5687 42.0091 25.2788 42.0091 33.0083C42.0091 42.2837 50.1823 45.3754 50.1823 45.3754C50.1823 45.6846 48.9249 49.7039 46.0957 54.0324C43.5809 57.7426 40.7517 61.4527 36.6651 61.4527C32.5785 61.4527 31.3211 58.9793 26.6058 58.9793C21.8905 58.9793 20.3187 61.4527 16.5465 61.4527C12.4599 61.4527 9.31637 57.4334 6.80154 53.7233C1.45753 45.9938 -2.62906 32.0808 3.0293 22.8054C5.54413 18.1677 10.5738 15.0759 15.6034 15.0759C19.69 15.0759 23.4623 17.8585 25.6628 17.8585C27.8632 17.8585 32.2642 14.7668 37.2938 15.0759Z" fill="#000114"/>
</svg>
