<svg width="28" height="28" viewBox="0 0 28 28" fill="none" xmlns="http://www.w3.org/2000/svg">
<mask id="mask0" mask-type="alpha" maskUnits="userSpaceOnUse" x="2" y="1" width="24" height="26">
<path fill-rule="evenodd" clip-rule="evenodd" d="M5.8335 5.83341C5.18916 5.83341 4.66683 6.35575 4.66683 7.00008V23.3334C4.66683 23.9777 5.18916 24.5001 5.8335 24.5001H22.1668C22.8112 24.5001 23.3335 23.9777 23.3335 23.3334V7.00008C23.3335 6.35575 22.8112 5.83341 22.1668 5.83341H5.8335ZM2.3335 7.00008C2.3335 5.06708 3.9005 3.50008 5.8335 3.50008H22.1668C24.0998 3.50008 25.6668 5.06708 25.6668 7.00008V23.3334C25.6668 25.2664 24.0998 26.8334 22.1668 26.8334H5.8335C3.9005 26.8334 2.3335 25.2664 2.3335 23.3334V7.00008Z" fill="#061938"/>
<path fill-rule="evenodd" clip-rule="evenodd" d="M18.6668 1.16675C19.3112 1.16675 19.8335 1.68908 19.8335 2.33341V7.00008C19.8335 7.64441 19.3112 8.16675 18.6668 8.16675C18.0225 8.16675 17.5002 7.64441 17.5002 7.00008V2.33341C17.5002 1.68908 18.0225 1.16675 18.6668 1.16675Z" fill="#061938"/>
<path fill-rule="evenodd" clip-rule="evenodd" d="M9.3335 1.16675C9.97783 1.16675 10.5002 1.68908 10.5002 2.33341V7.00008C10.5002 7.64441 9.97783 8.16675 9.3335 8.16675C8.68916 8.16675 8.16683 7.64441 8.16683 7.00008V2.33341C8.16683 1.68908 8.68916 1.16675 9.3335 1.16675Z" fill="#061938"/>
<path fill-rule="evenodd" clip-rule="evenodd" d="M2.3335 11.6667C2.3335 11.0224 2.85583 10.5001 3.50016 10.5001H24.5002C25.1445 10.5001 25.6668 11.0224 25.6668 11.6667C25.6668 12.3111 25.1445 12.8334 24.5002 12.8334H3.50016C2.85583 12.8334 2.3335 12.3111 2.3335 11.6667Z" fill="#061938"/>
</mask>
<g mask="url(#mask0)">
<rect width="28" height="28" fill="#010114" fill-opacity="0.4"/>
</g>
</svg>
