<svg width="240" height="72" viewBox="0 0 240 72" fill="none" xmlns="http://www.w3.org/2000/svg">
<path d="M36.0634 0.119141C16.207 0.119141 0.109375 16.1876 0.109375 36.0086C0.109375 55.8304 16.207 71.8976 36.0634 71.8976C55.922 71.8976 72.0179 55.8304 72.0179 36.0086C72.0179 16.1889 55.922 0.120855 36.063 0.120855L36.0634 0.119141ZM52.5517 51.882C51.9077 52.9363 50.5253 53.2706 49.4691 52.6234C41.0274 47.4763 30.4005 46.3106 17.8853 49.1649C16.6792 49.4392 15.4771 48.6849 15.2023 47.4806C14.9263 46.2763 15.6789 45.0763 16.8879 44.802C30.5838 41.6786 42.3318 43.0234 51.809 48.8049C52.8652 49.452 53.2 50.8277 52.5517 51.882ZM56.9524 42.1097C56.141 43.4263 54.4151 43.842 53.097 43.032C43.4326 37.1023 28.7007 35.385 17.2696 38.8487C15.7871 39.2957 14.2213 38.4617 13.7713 36.9844C13.3248 35.5046 14.1608 33.9446 15.6407 33.4946C28.6981 29.5397 44.931 31.4554 56.0294 38.2633C57.3474 39.0733 57.7639 40.7962 56.9524 42.1101V42.1097ZM57.3303 31.9337C45.7424 25.0633 26.624 24.4316 15.5604 27.7834C13.7838 28.3213 11.905 27.3201 11.3666 25.5467C10.8282 23.7724 11.8303 21.8983 13.6082 21.3591C26.3084 17.5106 47.4211 18.2541 60.7624 26.16C62.3638 27.1067 62.8876 29.1669 61.9388 30.7599C60.9942 32.355 58.9248 32.8809 57.332 31.9337H57.3303ZM97.9285 33.2503C91.7202 31.7726 90.6168 30.7354 90.6168 28.5561C90.6168 26.4973 92.5575 25.1117 95.4469 25.1117C98.2462 25.1117 101.02 26.1639 103.931 28.3299C104.016 28.3954 104.128 28.4216 104.235 28.4044C104.347 28.3881 104.442 28.3286 104.506 28.239L107.537 23.9739C107.662 23.7981 107.627 23.556 107.46 23.4219C103.995 20.6477 100.097 19.299 95.5371 19.299C88.8351 19.299 84.151 23.3143 84.151 29.0593C84.151 35.22 88.1911 37.4014 95.1721 39.0853C101.11 40.4512 102.115 41.5954 102.115 43.6406C102.115 45.9077 100.088 47.3177 96.8251 47.3177C93.2015 47.3177 90.2433 46.0963 86.9374 43.242C86.8559 43.1692 86.7442 43.1392 86.6412 43.1434C86.5295 43.152 86.4308 43.2034 86.3621 43.2849L82.9617 47.322C82.8201 47.4934 82.8372 47.742 83.0004 47.8877C86.8473 51.3163 91.5786 53.1249 96.6877 53.1249C103.909 53.1249 108.576 49.1863 108.576 43.0877C108.589 37.9419 105.502 35.0919 97.9414 33.2559L97.9285 33.2503ZM124.917 27.1389C121.787 27.1389 119.219 28.3697 117.098 30.8919V28.053C117.098 27.8289 116.918 27.6463 116.695 27.6463H111.135C110.912 27.6463 110.731 27.8289 110.731 28.053V59.5963C110.731 59.8192 110.912 60.0034 111.135 60.0034H116.695C116.918 60.0034 117.098 59.8192 117.098 59.5963V49.6406C119.219 52.0106 121.787 53.172 124.917 53.172C130.734 53.172 136.625 48.702 136.625 40.1567C136.633 31.6097 130.743 27.1384 124.921 27.1384L124.917 27.1389ZM130.159 40.1567C130.159 44.5063 127.476 47.5449 123.629 47.5449C119.829 47.5449 116.961 44.3692 116.961 40.1567C116.961 35.9439 119.829 32.769 123.629 32.769C127.411 32.7686 130.159 35.8749 130.159 40.1563V40.1567ZM151.716 27.1389C144.224 27.1389 138.355 32.8972 138.355 40.2497C138.355 47.5234 144.185 53.2192 151.626 53.2192C159.144 53.2192 165.03 47.4806 165.03 40.1567C165.03 32.8577 159.182 27.1397 151.716 27.1397V27.1389ZM151.716 47.5877C147.732 47.5877 144.726 44.3906 144.726 40.1546C144.726 35.8993 147.629 32.8114 151.626 32.8114C155.636 32.8114 158.658 36.0073 158.658 40.2476C158.658 44.502 155.739 47.5877 151.716 47.5877ZM181.027 27.6463H174.909V21.4037C174.909 21.18 174.728 20.9974 174.505 20.9974H168.945C168.722 20.9974 168.537 21.18 168.537 21.4037V27.6463H165.867C165.644 27.6463 165.463 27.8289 165.463 28.053V32.8217C165.463 33.0454 165.644 33.2284 165.867 33.2284H168.537V45.5692C168.537 50.5534 171.023 53.082 175.931 53.082C177.923 53.082 179.576 52.6706 181.134 51.7877C181.263 51.7192 181.34 51.582 181.34 51.4363V46.8934C181.34 46.7563 181.267 46.6234 181.147 46.5506C181.027 46.4734 180.877 46.4692 180.752 46.5334C179.683 47.0692 178.648 47.3177 177.489 47.3177C175.707 47.3177 174.909 46.5077 174.909 44.6992V33.2306H181.027C181.25 33.2306 181.43 33.048 181.43 32.8239V28.0556C181.439 27.8314 181.259 27.6489 181.031 27.6489L181.027 27.6463ZM202.339 27.6707V26.904C202.339 24.6484 203.206 23.6426 205.147 23.6426C206.306 23.6426 207.238 23.8723 208.281 24.2194C208.41 24.2597 208.543 24.2396 208.646 24.1629C208.754 24.0861 208.814 23.9631 208.814 23.8329V19.1571C208.814 18.9784 208.702 18.8203 208.526 18.7676C207.427 18.4406 206.019 18.105 203.906 18.105C198.776 18.105 196.058 20.991 196.058 26.448V27.6223H193.388C193.164 27.6223 192.98 27.8049 192.98 28.0286V32.8217C192.98 33.0454 193.164 33.2284 193.388 33.2284H196.058V52.2592C196.058 52.4863 196.243 52.6663 196.466 52.6663H202.022C202.249 52.6663 202.429 52.4863 202.429 52.2592V33.2297H207.62L215.571 52.2592C214.67 54.2563 213.781 54.6549 212.57 54.6549C211.591 54.6549 210.557 54.3634 209.505 53.7849C209.406 53.7334 209.286 53.7249 209.183 53.7549C209.076 53.7934 208.985 53.8706 208.942 53.9734L207.058 58.1006C206.967 58.2977 207.045 58.5249 207.234 58.6277C209.2 59.6906 210.973 60.1449 213.167 60.1449C217.272 60.1449 219.543 58.2334 221.539 53.0992L231.182 28.2261C231.234 28.101 231.216 27.9596 231.139 27.8486C231.066 27.7384 230.942 27.672 230.809 27.672H225.021C224.845 27.672 224.691 27.7822 224.635 27.9446L218.706 44.8449L212.214 27.9334C212.154 27.7761 212.004 27.672 211.836 27.672H202.339V27.6707ZM189.983 27.6463H184.423C184.2 27.6463 184.015 27.8289 184.015 28.053V52.2592C184.015 52.4863 184.2 52.6663 184.423 52.6663H189.983C190.206 52.6663 190.391 52.4863 190.391 52.2592V28.0547C190.391 27.8306 190.21 27.648 189.983 27.648V27.6463ZM187.235 16.6239C185.033 16.6239 183.247 18.4033 183.247 20.6014C183.247 22.8009 185.033 24.5824 187.235 24.5824C189.438 24.5824 191.219 22.8009 191.219 20.6014C191.219 18.4037 189.433 16.6239 187.235 16.6239ZM235.931 35.4296C233.732 35.4296 232.019 33.666 232.019 31.5244C232.019 29.3829 233.754 27.5991 235.952 27.5991C238.15 27.5991 239.863 29.3623 239.863 31.5021C239.863 33.6437 238.129 35.4296 235.931 35.4296ZM235.952 27.9874C233.947 27.9874 232.432 29.5774 232.432 31.5244C232.432 33.4706 233.939 35.0392 235.931 35.0392C237.936 35.0392 239.451 33.4504 239.451 31.5021C239.451 29.556 237.944 27.9874 235.952 27.9874ZM236.819 31.9037L237.927 33.45H236.991L235.995 32.0314H235.141V33.45H234.359V29.3511H236.188C237.146 29.3511 237.772 29.8384 237.772 30.6587C237.777 31.3307 237.386 31.7413 236.824 31.9037H236.819ZM236.158 30.0544H235.141V31.3509H236.158C236.665 31.3509 236.97 31.1027 236.97 30.702C236.97 30.2803 236.665 30.0544 236.158 30.0544Z" fill="#1ED760"/>
</svg>
