<svg width="28" height="28" viewBox="0 0 28 28" fill="none" xmlns="http://www.w3.org/2000/svg">
<mask id="mask0" mask-type="alpha" maskUnits="userSpaceOnUse" x="3" y="1" width="22" height="26">
<path fill-rule="evenodd" clip-rule="evenodd" d="M7 5.83333C6.69058 5.83333 6.39383 5.95625 6.17504 6.17504C5.95625 6.39383 5.83333 6.69058 5.83333 7V23.3333C5.83333 23.6428 5.95625 23.9395 6.17504 24.1583C6.39383 24.3771 6.69058 24.5 7 24.5H21C21.3094 24.5 21.6062 24.3771 21.825 24.1583C22.0437 23.9395 22.1667 23.6427 22.1667 23.3333V7C22.1667 6.69058 22.0437 6.39383 21.825 6.17504C21.6062 5.95625 21.3094 5.83333 21 5.83333H18.6667C18.0223 5.83333 17.5 5.311 17.5 4.66667C17.5 4.02233 18.0223 3.5 18.6667 3.5H21C21.9283 3.5 22.8185 3.86875 23.4749 4.52513C24.1313 5.1815 24.5 6.07174 24.5 7V23.3333C24.5 24.2616 24.1313 25.1518 23.4749 25.8082C22.8185 26.4646 21.9283 26.8333 21 26.8333H7C6.07174 26.8333 5.1815 26.4646 4.52513 25.8082C3.86875 25.1518 3.5 24.2616 3.5 23.3333V7C3.5 6.07174 3.86875 5.1815 4.52513 4.52513C5.1815 3.86875 6.07174 3.5 7 3.5H9.33333C9.97767 3.5 10.5 4.02233 10.5 4.66667C10.5 5.311 9.97767 5.83333 9.33333 5.83333H7Z" fill="#061938"/>
<path fill-rule="evenodd" clip-rule="evenodd" d="M8.1665 3.50008C8.1665 2.21142 9.21117 1.16675 10.4998 1.16675H17.4998C18.7885 1.16675 19.8332 2.21142 19.8332 3.50008V5.83341C19.8332 7.12208 18.7885 8.16675 17.4998 8.16675H10.4998C9.21117 8.16675 8.1665 7.12208 8.1665 5.83341V3.50008ZM17.4998 3.50008H10.4998V5.83341H17.4998V3.50008Z" fill="#061938"/>
</mask>
<g mask="url(#mask0)">
<rect width="28" height="28" fill="#010114" fill-opacity="0.42"/>
</g>
</svg>
