<svg width="28" height="28" viewBox="0 0 28 28" fill="none" xmlns="http://www.w3.org/2000/svg">
<mask id="mask0" mask-type="alpha" maskUnits="userSpaceOnUse" x="1" y="3" width="26" height="22">
<path fill-rule="evenodd" clip-rule="evenodd" d="M4.6665 5.83333C4.0275 5.83333 3.49984 6.361 3.49984 7V21C3.49984 21.639 4.0275 22.1667 4.6665 22.1667H23.3332C23.9722 22.1667 24.4998 21.639 24.4998 21V7C24.4998 6.361 23.9722 5.83333 23.3332 5.83333H4.6665ZM1.1665 7C1.1665 5.07233 2.73884 3.5 4.6665 3.5H23.3332C25.2608 3.5 26.8332 5.07233 26.8332 7V21C26.8332 22.9277 25.2608 24.5 23.3332 24.5H4.6665C2.73884 24.5 1.1665 22.9277 1.1665 21V7Z" fill="#061938"/>
<path fill-rule="evenodd" clip-rule="evenodd" d="M1.3775 6.33098C1.747 5.80312 2.47445 5.67475 3.00231 6.04425L13.9999 13.7426L24.9976 6.04425C25.5254 5.67475 26.2529 5.80312 26.6224 6.33098C26.9919 6.85884 26.8635 7.58629 26.3356 7.95579L14.669 16.1225C14.2673 16.4037 13.7326 16.4037 13.3309 16.1225L1.66423 7.95579C1.13637 7.58629 1.008 6.85884 1.3775 6.33098Z" fill="#061938"/>
</mask>
<g mask="url(#mask0)">
<rect width="28" height="28" fill="#010114" fill-opacity="0.44"/>
</g>
</svg>
