<svg width="180" height="17" viewBox="0 0 180 17" fill="none" xmlns="http://www.w3.org/2000/svg">
<path d="M4.642 16L0.33 0.599999H3.52L6.468 12.018L9.68 0.599999H12.276L15.51 12.018L18.458 0.599999H21.648L17.336 16H13.882L10.978 5.836L8.096 16H4.642ZM26.4445 13.096H32.9345V16H23.4085V0.599999H32.8245V3.504H26.4445V6.782H32.2745V9.642H26.4445V13.096ZM35.0745 0.599999H38.1105V16H35.0745V0.599999ZM56.0313 0.599999V16H53.0173V6.012L48.6833 13.162H48.3313L43.9973 6.034V16H40.9613V0.599999H44.0853L48.5073 7.882L52.9073 0.599999H56.0313ZM68.8007 16L67.8767 13.228H61.7387L60.8147 16H57.5367L62.9267 0.599999H66.6887L72.1007 16H68.8007ZM62.7067 10.39H66.9307L64.8187 4.098L62.7067 10.39ZM82.044 16L78.942 10.654H76.632V16H73.596V0.599999H79.756C81.1787 0.599999 82.3887 1.09867 83.386 2.096C84.3833 3.09333 84.882 4.296 84.882 5.704C84.882 6.65733 84.6107 7.54467 84.068 8.366C83.5253 9.17267 82.8067 9.78133 81.912 10.192L85.322 16H82.044ZM76.632 3.438V7.992H79.756C80.328 7.992 80.8193 7.772 81.23 7.332C81.6407 6.87733 81.846 6.33467 81.846 5.704C81.846 5.07333 81.6407 4.538 81.23 4.098C80.8193 3.658 80.328 3.438 79.756 3.438H76.632ZM89.6617 15.78C89.339 16.1027 88.9504 16.264 88.4957 16.264C88.041 16.264 87.6524 16.1027 87.3297 15.78C87.007 15.4573 86.8457 15.0687 86.8457 14.614C86.8457 14.1593 86.9997 13.7707 87.3077 13.448C87.6304 13.1253 88.0264 12.964 88.4957 12.964C88.9504 12.964 89.339 13.1253 89.6617 13.448C89.9844 13.7707 90.1457 14.1593 90.1457 14.614C90.1457 15.0687 89.9844 15.4573 89.6617 15.78ZM97.9091 16.286C96.4718 16.286 95.2398 15.9487 94.2131 15.274C93.2011 14.5993 92.4898 13.6753 92.0791 12.502L93.8391 11.49C94.4404 13.3527 95.8118 14.284 97.9531 14.284C99.0091 14.284 99.8158 14.0713 100.373 13.646C100.93 13.206 101.209 12.6267 101.209 11.908C101.209 11.1747 100.93 10.6247 100.373 10.258C99.8158 9.89133 98.8844 9.50267 97.5791 9.092C96.9338 8.88667 96.4424 8.72533 96.1051 8.608C95.7678 8.476 95.3424 8.28533 94.8291 8.036C94.3304 7.772 93.9564 7.508 93.7071 7.244C93.4578 6.96533 93.2304 6.606 93.0251 6.166C92.8344 5.726 92.7391 5.22733 92.7391 4.67C92.7391 3.33533 93.2084 2.27933 94.1471 1.502C95.0858 0.709999 96.2298 0.313999 97.5791 0.313999C98.7964 0.313999 99.8524 0.621999 100.747 1.238C101.656 1.854 102.338 2.668 102.793 3.68L101.077 4.67C100.417 3.086 99.2511 2.294 97.5791 2.294C96.7431 2.294 96.0684 2.49933 95.5551 2.91C95.0418 3.32067 94.7851 3.878 94.7851 4.582C94.7851 5.25667 95.0271 5.77 95.5111 6.122C95.9951 6.474 96.8311 6.84067 98.0191 7.222C98.4444 7.354 98.7451 7.44933 98.9211 7.508C99.0971 7.56667 99.3684 7.66933 99.7351 7.816C100.116 7.96267 100.395 8.08 100.571 8.168C100.747 8.256 100.982 8.38067 101.275 8.542C101.583 8.70333 101.81 8.85733 101.957 9.004C102.104 9.15067 102.272 9.334 102.463 9.554C102.668 9.75933 102.815 9.972 102.903 10.192C102.991 10.412 103.064 10.6687 103.123 10.962C103.196 11.2407 103.233 11.5413 103.233 11.864C103.233 13.2133 102.742 14.2913 101.759 15.098C100.776 15.89 99.4931 16.286 97.9091 16.286ZM114.953 0.599999V2.536H110.399V16H108.375V2.536H103.843V0.599999H114.953ZM126.724 14.812C125.653 15.7947 124.267 16.286 122.566 16.286C120.865 16.286 119.471 15.7947 118.386 14.812C117.315 13.8147 116.78 12.4873 116.78 10.83V0.599999H118.826V10.742C118.826 11.8273 119.149 12.6927 119.794 13.338C120.439 13.9687 121.363 14.284 122.566 14.284C123.769 14.284 124.693 13.9687 125.338 13.338C125.983 12.6927 126.306 11.8273 126.306 10.742V0.599999H128.33V10.83C128.33 12.4873 127.795 13.8147 126.724 14.812ZM137.465 0.599999C139.562 0.599999 141.3 1.348 142.679 2.844C144.072 4.32533 144.769 6.144 144.769 8.3C144.769 10.456 144.072 12.282 142.679 13.778C141.3 15.2593 139.562 16 137.465 16H131.459V0.599999H137.465ZM137.465 14.064C139.034 14.064 140.317 13.514 141.315 12.414C142.312 11.314 142.811 9.94267 142.811 8.3C142.811 6.65733 142.312 5.286 141.315 4.186C140.317 3.086 139.034 2.536 137.465 2.536H133.505V14.064H137.465ZM147.25 0.599999H149.296V16H147.25V0.599999ZM165.403 13.954C163.863 15.5087 161.979 16.286 159.749 16.286C157.52 16.286 155.635 15.5087 154.095 13.954C152.555 12.3993 151.785 10.5147 151.785 8.3C151.785 6.07067 152.555 4.186 154.095 2.646C155.635 1.09133 157.52 0.313999 159.749 0.313999C161.979 0.313999 163.863 1.09133 165.403 2.646C166.958 4.186 167.735 6.07067 167.735 8.3C167.735 10.5147 166.958 12.3993 165.403 13.954ZM155.503 12.568C156.647 13.712 158.063 14.284 159.749 14.284C161.436 14.284 162.844 13.712 163.973 12.568C165.117 11.4093 165.689 9.98667 165.689 8.3C165.689 6.59867 165.117 5.176 163.973 4.032C162.844 2.87333 161.436 2.294 159.749 2.294C158.063 2.294 156.647 2.87333 155.503 4.032C154.374 5.176 153.809 6.59867 153.809 8.3C153.809 9.98667 154.374 11.4093 155.503 12.568ZM174.608 16.286C173.171 16.286 171.939 15.9487 170.912 15.274C169.9 14.5993 169.189 13.6753 168.778 12.502L170.538 11.49C171.14 13.3527 172.511 14.284 174.652 14.284C175.708 14.284 176.515 14.0713 177.072 13.646C177.63 13.206 177.908 12.6267 177.908 11.908C177.908 11.1747 177.63 10.6247 177.072 10.258C176.515 9.89133 175.584 9.50267 174.278 9.092C173.633 8.88667 173.142 8.72533 172.804 8.608C172.467 8.476 172.042 8.28533 171.528 8.036C171.03 7.772 170.656 7.508 170.406 7.244C170.157 6.96533 169.93 6.606 169.724 6.166C169.534 5.726 169.438 5.22733 169.438 4.67C169.438 3.33533 169.908 2.27933 170.846 1.502C171.785 0.709999 172.929 0.313999 174.278 0.313999C175.496 0.313999 176.552 0.621999 177.446 1.238C178.356 1.854 179.038 2.668 179.492 3.68L177.776 4.67C177.116 3.086 175.95 2.294 174.278 2.294C173.442 2.294 172.768 2.49933 172.254 2.91C171.741 3.32067 171.484 3.878 171.484 4.582C171.484 5.25667 171.726 5.77 172.21 6.122C172.694 6.474 173.53 6.84067 174.718 7.222C175.144 7.354 175.444 7.44933 175.62 7.508C175.796 7.56667 176.068 7.66933 176.434 7.816C176.816 7.96267 177.094 8.08 177.27 8.168C177.446 8.256 177.681 8.38067 177.974 8.542C178.282 8.70333 178.51 8.85733 178.656 9.004C178.803 9.15067 178.972 9.334 179.162 9.554C179.368 9.75933 179.514 9.972 179.602 10.192C179.69 10.412 179.764 10.6687 179.822 10.962C179.896 11.2407 179.932 11.5413 179.932 11.864C179.932 13.2133 179.441 14.2913 178.458 15.098C177.476 15.89 176.192 16.286 174.608 16.286Z" fill="#000114"/>
</svg>
