<svg width="122" height="37" viewBox="0 0 122 37" fill="none" xmlns="http://www.w3.org/2000/svg">
<g clip-path="url(#clip0)">
<path d="M18.3322 0.0605469C8.23849 0.0605469 0.055542 8.24328 0.055542 18.337C0.055542 28.4311 8.23849 36.6132 18.3322 36.6132C28.427 36.6132 36.6091 28.4311 36.6091 18.337C36.6091 8.24393 28.427 0.0614199 18.332 0.0614199L18.3322 0.0605469ZM26.7137 26.4204C26.3864 26.9573 25.6836 27.1275 25.1467 26.798C20.8556 24.1768 15.4535 23.5832 9.09162 25.0367C8.47856 25.1764 7.86747 24.7923 7.72779 24.179C7.58746 23.5657 7.97005 22.9546 8.58463 22.815C15.5467 21.2244 21.5186 21.9092 26.3362 24.8534C26.8731 25.1829 27.0433 25.8835 26.7137 26.4204ZM28.9508 21.4439C28.5383 22.1144 27.6609 22.3261 26.9909 21.9136C22.0782 18.8939 14.5895 18.0194 8.77865 19.7833C8.02504 20.0109 7.2291 19.5862 7.00038 18.8339C6.7734 18.0803 7.19833 17.2859 7.95062 17.0567C14.5882 15.0428 22.8399 16.0183 28.4815 19.4852C29.1516 19.8977 29.3633 20.775 28.9508 21.4442V21.4439ZM29.1428 16.2619C23.2523 12.7632 13.5338 12.4415 7.90981 14.1484C7.00671 14.4223 6.05166 13.9125 5.77797 13.0094C5.50429 12.1058 6.01368 11.1514 6.91744 10.8769C13.3734 8.91701 24.1057 9.29566 30.8875 13.3217C31.7016 13.8038 31.9678 14.8529 31.4855 15.6641C31.0053 16.4764 29.9534 16.7442 29.1437 16.2619H29.1428ZM49.7803 16.9323C46.6244 16.1798 46.0635 15.6517 46.0635 14.5419C46.0635 13.4934 47.05 12.7878 48.5188 12.7878C49.9418 12.7878 51.3516 13.3236 52.8313 14.4266C52.875 14.46 52.9317 14.4734 52.9863 14.4646C53.043 14.4563 53.0911 14.426 53.1238 14.3804L54.6646 12.2084C54.7279 12.1189 54.7104 11.9956 54.6253 11.9273C52.8641 10.5146 50.8824 9.82775 48.5646 9.82775C45.1578 9.82775 42.7767 11.8725 42.7767 14.7981C42.7767 17.9354 44.8304 19.0463 48.3791 19.9038C51.3975 20.5993 51.9082 21.182 51.9082 22.2235C51.9082 23.378 50.878 24.0961 49.2194 24.0961C47.3774 24.0961 45.8736 23.4741 44.1931 22.0205C44.1517 21.9834 44.0949 21.9682 44.0425 21.9704C43.9858 21.9747 43.9356 22.0009 43.9007 22.0424L42.1722 24.0983C42.1001 24.1856 42.1089 24.3121 42.1918 24.3863C44.1473 26.1323 46.5524 27.0533 49.1495 27.0533C52.8204 27.0533 55.1928 25.0476 55.1928 21.942C55.1993 19.3215 53.6301 17.8701 49.7868 16.9352L49.7803 16.9323ZM63.4993 13.8201C61.9082 13.8201 60.6031 14.4469 59.525 15.7313V14.2857C59.525 14.1715 59.4333 14.0785 59.3198 14.0785H56.4935C56.38 14.0785 56.2884 14.1715 56.2884 14.2857V30.3489C56.2884 30.4623 56.38 30.5562 56.4935 30.5562H59.3198C59.4333 30.5562 59.525 30.4623 59.525 30.3489V25.279C60.6031 26.4859 61.9082 27.0773 63.4993 27.0773C66.4565 27.0773 69.4508 24.801 69.4508 20.4494C69.4552 16.0969 66.4609 13.8199 63.5014 13.8199L63.4993 13.8201ZM66.164 20.4494C66.164 22.6644 64.8 24.2117 62.8445 24.2117C60.913 24.2117 59.4551 22.5945 59.4551 20.4494C59.4551 18.304 60.913 16.6872 62.8445 16.6872C64.7673 16.687 66.164 18.2689 66.164 20.4492V20.4494ZM77.1222 13.8201C73.3138 13.8201 70.3304 16.7525 70.3304 20.4967C70.3304 24.2008 73.2942 27.1013 77.0764 27.1013C80.8979 27.1013 83.8901 24.179 83.8901 20.4494C83.8901 16.7324 80.9175 13.8206 77.1222 13.8206V13.8201ZM77.1222 24.2336C75.0969 24.2336 73.5692 22.6054 73.5692 20.4483C73.5692 18.2813 75.0445 16.7089 77.0764 16.7089C79.1148 16.7089 80.6513 18.3363 80.6513 20.4957C80.6513 22.6622 79.1672 24.2336 77.1222 24.2336ZM92.0219 14.0785H88.9119V10.8996C88.9119 10.7856 88.8203 10.6927 88.7068 10.6927H85.8805C85.767 10.6927 85.6731 10.7856 85.6731 10.8996V14.0785H84.3156C84.2021 14.0785 84.1105 14.1715 84.1105 14.2857V16.7141C84.1105 16.828 84.2021 16.9212 84.3156 16.9212H85.6731V23.2056C85.6731 25.7438 86.9368 27.0315 89.4313 27.0315C90.444 27.0315 91.2843 26.822 92.0765 26.3724C92.142 26.3375 92.1813 26.2676 92.1813 26.1934V23.88C92.1813 23.8102 92.1442 23.7425 92.083 23.7054C92.0219 23.6661 91.9455 23.6639 91.8823 23.6967C91.3388 23.9695 90.8128 24.0961 90.2236 24.0961C89.3179 24.0961 88.9119 23.6836 88.9119 22.7626V16.9223H92.0219C92.1354 16.9223 92.2271 16.8293 92.2271 16.7152V14.287C92.2314 14.1728 92.1398 14.0799 92.0241 14.0799L92.0219 14.0785ZM102.856 14.091V13.7005C102.856 12.5519 103.297 12.0397 104.283 12.0397C104.872 12.0397 105.346 12.1567 105.876 12.3334C105.942 12.354 106.009 12.3437 106.062 12.3046C106.116 12.2656 106.147 12.2029 106.147 12.1366V9.75551C106.147 9.6645 106.09 9.58397 106.001 9.55712C105.442 9.3906 104.726 9.21971 103.652 9.21971C101.044 9.21971 99.6628 10.6894 99.6628 13.4683V14.0663H98.3053C98.1918 14.0663 98.0979 14.1593 98.0979 14.2732V16.7141C98.0979 16.828 98.1918 16.9212 98.3053 16.9212H99.6628V26.6125C99.6628 26.7281 99.7566 26.8198 99.8701 26.8198H102.694C102.81 26.8198 102.902 26.7281 102.902 26.6125V16.9219H105.54L109.582 26.6125C109.124 27.6295 108.672 27.8325 108.057 27.8325C107.559 27.8325 107.033 27.6841 106.498 27.3894C106.448 27.3632 106.387 27.3589 106.335 27.3741C106.28 27.3938 106.234 27.4331 106.212 27.4854L105.254 29.5872C105.208 29.6876 105.248 29.8032 105.344 29.8556C106.343 30.3969 107.245 30.6282 108.36 30.6282C110.446 30.6282 111.601 29.6548 112.616 27.0402L117.518 14.3738C117.544 14.3101 117.535 14.2381 117.496 14.1816C117.459 14.1255 117.395 14.0916 117.328 14.0916H114.386C114.296 14.0916 114.218 14.1477 114.189 14.2304L111.175 22.8368L107.875 14.2248C107.845 14.1447 107.768 14.0916 107.683 14.0916H102.856V14.091ZM96.5746 14.0785H93.7483C93.6348 14.0785 93.5409 14.1715 93.5409 14.2857V26.6125C93.5409 26.7281 93.6348 26.8198 93.7483 26.8198H96.5746C96.688 26.8198 96.7819 26.7281 96.7819 26.6125V14.2865C96.7819 14.1724 96.6902 14.0794 96.5746 14.0794V14.0785ZM95.1778 8.46545C94.0582 8.46545 93.1503 9.37161 93.1503 10.491C93.1503 11.611 94.0582 12.5183 95.1778 12.5183C96.2974 12.5183 97.2031 11.611 97.2031 10.491C97.2031 9.37183 96.2952 8.46545 95.1778 8.46545ZM119.931 18.0421C118.814 18.0421 117.943 17.144 117.943 16.0535C117.943 14.9629 118.825 14.0545 119.942 14.0545C121.06 14.0545 121.93 14.9524 121.93 16.0421C121.93 17.1327 121.049 18.0421 119.931 18.0421ZM119.942 14.2523C118.923 14.2523 118.153 15.062 118.153 16.0535C118.153 17.0445 118.919 17.8433 119.931 17.8433C120.951 17.8433 121.721 17.0343 121.721 16.0421C121.721 15.0511 120.955 14.2523 119.942 14.2523ZM120.383 16.2466L120.946 17.034H120.47L119.964 16.3116H119.53V17.034H119.133V14.9467H120.062C120.549 14.9467 120.868 15.1949 120.868 15.6126C120.87 15.9548 120.671 16.1639 120.385 16.2466H120.383ZM120.047 15.3049H119.53V15.9651H120.047C120.305 15.9651 120.46 15.8387 120.46 15.6346C120.46 15.4199 120.305 15.3049 120.047 15.3049Z" fill="#1ED760"/>
</g>
<defs>
<clipPath id="clip0">
<rect width="122" height="36.6655" fill="white"/>
</clipPath>
</defs>
</svg>
