<svg xmlns="http://www.w3.org/2000/svg" viewBox="0 0 1732.74 577.76"><defs><style>.cls-1{fill:#4b19ec;}.cls-2{fill:#cf5fff;}.cls-3,.cls-4{opacity:0.5;}.cls-4{fill:none;stroke:#6758e5;isolation:isolate;}.cls-5{fill:#9b46d7;fill-opacity:0.06;}</style></defs><title>swirl</title><g id="Layer_2" data-name="Layer 2"><g id="Layer_1-2" data-name="Layer 1"><circle class="cls-1" cx="1032.93" cy="413" r="12.5"/><circle class="cls-2" cx="1032.93" cy="413" r="3.75"/><circle class="cls-2" cx="1032.93" cy="413" r="2.5"/><g class="cls-3"><circle class="cls-1" cx="1237.93" cy="72" r="12.5"/><circle class="cls-2" cx="1237.93" cy="72" r="3.75"/><circle class="cls-2" cx="1237.93" cy="72" r="2.5"/></g><circle class="cls-1" cx="127.43" cy="265.5" r="8"/><circle class="cls-2" cx="127.43" cy="265.5" r="2.4"/><circle class="cls-2" cx="127.43" cy="265.5" r="1.6"/><path class="cls-4" d="M.43,328c47.33-43.66,174-134.8,302-150,160-19,305,57.69,401,81,90,21.86,120,38.2,249,8,144-33.7,217.5-177.35,345-226,91-34.72,294-68,435-5"/><path class="cls-4" d="M.43,369.5c47.33-49.2,174-151.89,302-169,160-21.41,305,65,401,91.27,90,24.63,120,43,249,9,144-38,217.5-199.84,345-254.66,91-39.13,294-76.63,435-5.64"/><path class="cls-4" d="M.43,425.5c47.33-56.67,174-174.95,302-194.67,160-24.66,305,74.86,401,105.12,90,28.37,120,49.57,249,10.38,144-43.74,217.5-230.16,345-293.3,91-45.07,294-88.25,435-6.49"/><path class="cls-4" d="M.43,490.5c47.33-65.34,174-201.7,302-224.45,160-28.42,305,86.32,401,121.21,90,32.7,143,49.09,249,12,144-50.43,217.5-265.37,345-338.17,91-52,294-101.75,435-7.48"/><path class="cls-4" d="M.43,577.5c47.33-76.94,174-237.51,302-264.3,160-33.47,305,101.65,401,142.72,90,38.52,151,54.51,249,14.1,144-59.38,217.5-312.48,345-398.21,91-61.18,294-119.81,435-8.81"/><circle class="cls-5" cx="1100.93" cy="290" r="16.5"/></g></g></svg>