<svg id="Layer_1" data-name="Layer 1" xmlns="http://www.w3.org/2000/svg" viewBox="0 0 1732.74 577.76"><defs><style>.cls-1{fill:#4b19ec;}.cls-2{fill:#cf5fff;}.cls-3,.cls-4{opacity:0.5;}.cls-4{fill:none;stroke:#6758e5;isolation:isolate;}.cls-5{fill:#9b46d7;fill-opacity:0.06;}</style></defs><title>swirls</title><circle class="cls-1" cx="1032.93" cy="413" r="12.5"/><circle class="cls-2" cx="1032.93" cy="413" r="3.75"/><circle class="cls-2" cx="1032.93" cy="413" r="2.5"/><g class="cls-3"><circle class="cls-1" cx="1237.93" cy="72" r="12.5"/><circle class="cls-2" cx="1237.93" cy="72" r="3.75"/><circle class="cls-2" cx="1237.93" cy="72" r="2.5"/></g><circle class="cls-1" cx="127.43" cy="265.5" r="8"/><circle class="cls-2" cx="127.43" cy="265.5" r="2.4"/><circle class="cls-2" cx="127.43" cy="265.5" r="1.6"/><path class="cls-4" d="M-46.28,602.76c47.34-43.67,174-134.8,302-150,160-19,305,57.69,401,81,90,21.86,120,38.19,249,8,144-33.7,217.5-177.35,345-226,91-34.72,294-68,435-5" transform="translate(46.7 -274.79)"/><path class="cls-4" d="M-46.28,644.29c47.34-49.21,174-151.9,302-169,160-21.41,305,65,401,91.27,90,24.63,120,43,249,9,144-38,217.5-199.84,345-254.66,91-39.12,294-76.62,435-5.63" transform="translate(46.7 -274.79)"/><path class="cls-4" d="M-46.28,700.29c47.34-56.67,174-174.95,302-194.68,160-24.65,305,74.87,401,105.13,90,28.36,120,49.56,249,10.38,144-43.74,217.5-230.17,345-293.31,91-45.06,294-88.25,435-6.49" transform="translate(46.7 -274.79)"/><path class="cls-4" d="M-46.28,765.29c47.34-65.34,174-201.71,302-224.45,160-28.43,305,86.32,401,121.2,90,32.71,143,49.09,249,12,144-50.43,217.5-265.37,345-338.16,91-52,294-101.75,435-7.48" transform="translate(46.7 -274.79)"/><path class="cls-4" d="M-46.28,852.29c47.34-76.94,174-237.52,302-264.3,160-33.48,305,101.64,401,142.72,90,38.51,151,54.51,249,14.1,144-59.39,217.5-312.49,345-398.21,91-61.18,294-119.81,435-8.81" transform="translate(46.7 -274.79)"/><circle class="cls-5" cx="1100.93" cy="290" r="16.5"/></svg>