<svg xmlns="http://www.w3.org/2000/svg" viewBox="0 0 74.09 67.91"><defs><style>.cls-1{fill:#fafbfc;}.cls-2{fill:none;stroke:#fafbfc;stroke-miterlimit:10;stroke-width:3.09px;}</style></defs><title>video-lectures</title><g id="Layer_2" data-name="Layer 2"><g id="Layer_1-2" data-name="Layer 1"><path class="cls-1" d="M32.54,33.58v-13l9.5,6.5Z"/><path class="cls-2" d="M63.28,1.54h6.18a3.09,3.09,0,0,1,3.08,3.09V43.31"/><path class="cls-2" d="M1.54,43.22V4.63A3.11,3.11,0,0,1,4.63,1.54H10.8"/><path class="cls-2" d="M1.54,47.85h71v4.63a3.09,3.09,0,0,1-3.08,3.09H4.63a3.11,3.11,0,0,1-3.09-3.09Z"/><path class="cls-2" d="M29.33,55.57v1.54l-1.55,7.72v1.54"/><path class="cls-2" d="M44.76,55.57v1.54l1.54,7.72v1.54"/><path class="cls-2" d="M23.15,66.37H50.93"/><path class="cls-2" d="M10.54,47.58v-46h53V7h-53"/><path class="cls-2" d="M63.28,6.17V47.85"/></g></g></svg>